<svg width="327" height="334" viewBox="0 0 327 334" fill="none" xmlns="http://www.w3.org/2000/svg">
<path fill-rule="evenodd" clip-rule="evenodd" d="M163.053 0C223.552 0 276.356 33.5342 304.497 83.3345C225.396 175.708 304.497 83.3344 225.396 175.708C174.523 118.18 225.396 175.708 174.523 118.18C37.8626 272.275 174.523 118.18 37.8626 272.275C14.2257 243.479 0 206.403 0 165.946C0 74.2959 73.0006 0 163.053 0Z" fill="url(#paint0_linear_7_2)"/>
<path d="M276.233 166.135V167.586L264.922 167.564C265.077 164.906 264.658 163.251 265.178 163.095L265.722 163.32C265.722 162.763 266.278 162.111 265.114 159.271C262.33 154.939 262.649 148.388 263.156 145.654L256.263 141.179C255.974 145.161 254.212 151.596 252.69 152.711C251.82 153.348 251.506 158.709 251.458 161.311C251.458 163.964 251.458 166.619 251.458 169.273C253.162 167.978 250.854 171.583 256.432 171.583C257.894 172.379 256.432 173.762 256.432 174.851C253.3 174.876 245.152 180.75 246.267 175.007C246.946 172.328 245.692 170.753 246.35 170.794H247.292C247.22 169.812 246.935 165.818 246.703 159.321C246.471 152.823 248.056 147.748 248.877 146.023L248.507 137.596C248.556 137.092 248.624 136.019 248.507 135.765C248.392 135.51 248.073 135.659 247.927 135.765L245.753 139.826H245.317V138.79H245.753V135.128H244.52V137.755C244.23 137.782 243.549 137.867 243.143 137.994C242.737 138.122 242.007 139.374 241.693 139.985L240.896 139.826C240.871 139.348 240.838 138.313 240.896 137.994C240.953 137.676 242.176 136.959 242.78 136.641C242.757 136.455 242.722 135.733 242.78 134.332C242.839 132.93 242.418 132.686 242.201 132.739C241.983 132.766 241.519 132.627 241.403 131.863C241.287 131.099 241.887 130.589 242.201 130.43V126.193C242.12 126.21 241.899 126.203 241.403 126.13C240.534 126.003 239.929 125.546 239.736 125.334L235.459 115.699C235.459 115.248 235.619 114.217 236.257 113.708C236.895 113.198 236.619 112.434 236.401 112.116C235.869 111.584 234.777 110.029 234.662 108.054C234.545 106.08 235.58 104.79 236.111 104.392H238.576C239.204 103.489 240.794 101.684 242.129 101.684C242.939 100.092 245.704 99.4811 246.985 99.3756C246.937 98.9243 247.057 97.9896 247.927 97.8619C249.015 97.7031 249.16 98.7383 249.16 99.1363C249.16 99.5343 250.247 99.2157 251.335 98.2599C253.538 96.4769 253.074 94.7573 252.567 94.12C252.228 93.722 251.552 92.4154 251.552 90.3772C251.552 87.8293 252.711 83.9276 257.424 83.8482C262.135 83.7678 261.845 87.2705 262.207 90.0576C262.851 90.933 263.146 91.6878 263.359 92.0486C263.453 92.2074 263.186 92.7652 263.142 92.7652C263.083 92.7652 262.812 92.925 262.498 92.925C262.474 92.8728 262.242 92.9733 262.498 93.4034C262.924 94.118 262.378 94.3402 262.258 94.4457L261.41 94.518C261.57 94.4778 262.325 94.3965 262.489 94.4367C262.572 94.4377 262.558 94.7573 262.509 94.8427C262.35 95.1141 261.943 95.1884 261.99 95.8719C262.104 97.68 261.415 97.6398 260.976 97.7031C259.622 98.6851 257.148 100.856 258.076 101.684C259.989 103.15 260.178 109.78 260.033 112.912C259.889 116.256 259.598 125.175 260.686 126.448C261.121 127.483 262.86 129.554 264.528 130.987C265.861 132.134 265.277 133.536 264.817 134.093L263.947 135.367C265.446 137.066 267.492 138.313 268.013 138.886C268.535 139.459 268.618 140.77 268.593 141.354L268.648 161.815C269.684 160.915 268.584 163.938 273.557 164.682C274.979 164.682 276.173 165.907 276.233 166.135Z" fill="black"/>
<path d="M262.132 87.6462L249.256 92.0919L249.388 92.4892L262.265 88.0434L262.132 87.6462Z" fill="black" stroke="#201E1E" stroke-width="0.0651975" stroke-miterlimit="22.9256"/>
<path fill-rule="evenodd" clip-rule="evenodd" d="M294.573 266.946C330.629 217.504 335.642 154.364 313.121 101.685C225.468 202.18 313.121 101.685 225.468 202.18C180.242 148.886 221.782 197.831 177.889 146.901V185.232L168.447 178.063V147.443L49.1402 286.216C54.4907 291.572 60.2679 296.616 66.4648 301.297C138.776 355.919 240.903 340.539 294.573 266.946ZM145.519 208.565L153.471 213.798L120.585 252.227C113.052 260.416 113.531 260.302 123.191 271.403C130.375 279.669 130.375 279.669 130.375 279.669L123.768 285.852L117.559 278.715C101.506 260.266 101.46 260.213 113.082 246.301C123.927 234.855 145.519 208.565 145.519 208.565Z" fill="#365902"/>
<path fill-rule="evenodd" clip-rule="evenodd" d="M94.7429 51.1098L94.6481 51.5249C94.5434 51.538 94.3914 51.5581 94.1909 51.5852C93.9914 51.6143 93.7959 51.6897 93.6053 51.8123C93.4453 51.9149 93.308 52.0908 93.1935 52.343C93.0799 52.5933 92.9663 52.9591 92.8547 53.4436L91.5363 59.2469H90.5933L87.1645 52.7672L86.2559 56.8136C86.2065 57.0256 86.17 57.2246 86.1434 57.4116C86.1167 57.5975 86.1038 57.7463 86.1038 57.8558C86.1038 58.0116 86.1187 58.1322 86.1493 58.2177C86.1789 58.3041 86.2223 58.3755 86.2776 58.4318C86.3636 58.5192 86.5137 58.5966 86.729 58.6599C86.9433 58.7242 87.1033 58.7664 87.2079 58.7865L87.1121 59.2016H83.6932L83.789 58.7865C83.8898 58.7704 84.0488 58.7443 84.268 58.7061C84.4862 58.6679 84.6739 58.5996 84.8309 58.5011C84.9948 58.3956 85.1331 58.2197 85.2457 57.9785C85.3573 57.7372 85.4679 57.3694 85.5765 56.8759L86.4416 53.0667C86.4604 52.9792 86.4762 52.8968 86.489 52.8184C86.5028 52.739 86.5087 52.6676 86.5087 52.6043C86.5087 52.4908 86.4959 52.3812 86.4692 52.2767C86.4436 52.1711 86.3952 52.0757 86.3231 51.9882C86.2184 51.8576 86.09 51.7591 85.936 51.6877C85.7829 51.6184 85.6032 51.5641 85.3968 51.5249L85.4975 51.1098H88.4354L91.4346 56.8156L92.1802 53.4999C92.2326 53.2566 92.2711 53.0576 92.2948 52.9039C92.3195 52.7501 92.3313 52.6064 92.3313 52.4727C92.3313 52.3239 92.3155 52.2033 92.2839 52.1108C92.2523 52.0174 92.2069 51.94 92.1467 51.8797C92.0647 51.7963 91.9205 51.7209 91.7131 51.6555C91.5067 51.5872 91.3468 51.545 91.2352 51.5249L91.33 51.1098H94.7429Z" fill="#FEFEFE"/>
<path fill-rule="evenodd" clip-rule="evenodd" d="M85.927 185.836C85.4856 185.836 85.0422 185.779 84.5958 185.667C84.1494 185.558 83.7584 185.406 83.4216 185.214L82.9397 185.613H82.4637L83.0582 182.687H83.5401C83.5845 182.974 83.6665 183.27 83.786 183.576C83.9055 183.883 84.0606 184.157 84.2512 184.397C84.4378 184.643 84.6748 184.85 84.9632 185.013C85.2506 185.178 85.5794 185.26 85.9487 185.26C86.4909 185.26 86.9244 185.124 87.2493 184.855C87.5742 184.589 87.7362 184.234 87.7362 183.797C87.7362 183.515 87.6444 183.267 87.4587 183.054C87.274 182.841 86.9758 182.658 86.565 182.506C86.3043 182.411 86.0505 182.319 85.8065 182.23C85.5616 182.14 85.3286 182.047 85.1083 181.952C84.6718 181.766 84.343 181.5 84.1228 181.154C83.9016 180.811 83.7919 180.445 83.7919 180.056C83.7919 179.699 83.8719 179.355 84.0329 179.026C84.1929 178.697 84.4249 178.403 84.7271 178.143C85.0224 177.889 85.3878 177.684 85.8233 177.53C86.2578 177.375 86.7358 177.298 87.2543 177.298C87.6878 177.298 88.1174 177.362 88.543 177.49C88.9697 177.62 89.2827 177.744 89.4852 177.863L89.9049 177.521H90.3927L89.81 180.281H89.3281C89.2788 179.957 89.2086 179.652 89.1178 179.366C89.0259 179.081 88.9005 178.824 88.7396 178.595C88.5825 178.373 88.387 178.198 88.1539 178.066C87.9209 177.934 87.6394 177.869 87.3106 177.869C86.8553 177.869 86.4751 177.999 86.17 178.257C85.8658 178.516 85.7137 178.842 85.7137 179.235C85.7137 179.509 85.8055 179.748 85.9882 179.953C86.1709 180.159 86.4613 180.339 86.8573 180.491C87.0884 180.579 87.3313 180.668 87.5851 180.761C87.8389 180.855 88.0818 180.951 88.3139 181.05C88.7465 181.233 89.0881 181.482 89.339 181.795C89.5888 182.109 89.7143 182.482 89.7143 182.912C89.7143 183.319 89.6224 183.701 89.4397 184.058C89.257 184.417 89.0012 184.725 88.6724 184.984C88.3248 185.258 87.9199 185.468 87.4557 185.615C86.9936 185.763 86.483 185.836 85.927 185.836Z" fill="#FEFEFE"/>
<path fill-rule="evenodd" clip-rule="evenodd" d="M151.267 114.313L150.801 116.378H150.382C150.329 116.017 150.203 115.686 150.002 115.385C149.802 115.085 149.592 114.909 149.371 114.86C149.267 114.834 149.115 114.818 148.917 114.813C148.719 114.805 148.554 114.803 148.423 114.803H147.323L146.605 117.963H147.369C147.649 117.963 147.869 117.931 148.028 117.868C148.187 117.806 148.336 117.717 148.475 117.603C148.579 117.514 148.702 117.359 148.842 117.132C148.983 116.906 149.083 116.714 149.142 116.552H149.563L148.796 119.93H148.375V119.718C148.375 119.549 148.357 119.373 148.322 119.192C148.286 119.011 148.245 118.884 148.195 118.811C148.098 118.667 147.969 118.572 147.808 118.524C147.647 118.476 147.463 118.453 147.258 118.453H146.494L145.982 120.705C145.956 120.819 145.932 120.944 145.909 121.075C145.887 121.208 145.876 121.303 145.876 121.361C145.876 121.605 145.954 121.757 146.112 121.821C146.269 121.883 146.558 121.914 146.98 121.914C147.518 121.914 147.91 121.89 148.157 121.843C148.404 121.795 148.588 121.722 148.712 121.623C148.936 121.433 149.205 121.143 149.519 120.752C149.833 120.36 150.045 120.069 150.158 119.884H150.566L149.843 122.404H142.442L142.537 121.987C142.63 121.984 142.77 121.973 142.954 121.951C143.139 121.931 143.276 121.905 143.366 121.874C143.512 121.825 143.623 121.75 143.699 121.645C143.776 121.543 143.829 121.426 143.859 121.292L145.144 115.635C145.162 115.556 145.175 115.489 145.183 115.436C145.191 115.383 145.194 115.342 145.194 115.317C145.194 115.156 145.115 115.032 144.956 114.942C144.798 114.854 144.538 114.782 144.18 114.728L144.276 114.313H151.267Z" fill="#FEFEFE"/>
<path fill-rule="evenodd" clip-rule="evenodd" d="M31.4365 114.313L31.3357 114.728C31.2123 114.741 31.0898 114.768 30.9664 114.814C30.843 114.86 30.7235 114.911 30.6069 114.967C30.4282 115.059 30.2879 115.161 30.1872 115.273C30.0865 115.387 29.9818 115.534 29.8732 115.721C29.5038 116.355 28.9656 117.295 28.2595 118.538C27.5534 119.782 26.8068 121.1 26.0188 122.495H24.8535L24.1365 116.531L20.9082 122.495H19.7874C19.6303 121.069 19.4861 119.729 19.3528 118.475C19.2205 117.221 19.1207 116.295 19.0536 115.699C19.0269 115.496 18.9854 115.348 18.9272 115.251C18.8689 115.154 18.7702 115.054 18.627 114.951C18.5381 114.887 18.4403 114.838 18.3366 114.805C18.2319 114.773 18.1105 114.748 17.9722 114.728L18.067 114.313H22.2256L22.1249 114.728C21.8563 114.759 21.6469 114.792 21.4978 114.825C21.3477 114.86 21.2361 114.898 21.161 114.94C21.0949 114.978 21.0554 115.021 21.0435 115.068C21.0327 115.116 21.0277 115.163 21.0277 115.215C21.0277 115.289 21.0307 115.377 21.0386 115.48C21.0455 115.581 21.0554 115.688 21.0662 115.807C21.0968 116.163 21.1521 116.728 21.2331 117.5C21.3141 118.273 21.4059 119.174 21.5077 120.203L24.6392 114.313H25.8302L26.5531 120.384C26.9965 119.569 27.4083 118.808 27.7885 118.098C28.1697 117.391 28.4709 116.816 28.695 116.376C28.8323 116.107 28.9528 115.856 29.0565 115.624C29.1592 115.392 29.2105 115.242 29.2105 115.174C29.2105 115.055 29.1118 114.958 28.9153 114.883C28.7197 114.807 28.4333 114.755 28.0561 114.728L28.1568 114.313H31.4365Z" fill="#FEFEFE"/>
<path fill-rule="evenodd" clip-rule="evenodd" d="M87.0611 130.802C79.2337 130.802 72.866 124.321 72.866 116.354C72.866 108.389 79.2337 101.907 87.0611 101.907C94.8884 101.907 101.256 108.389 101.256 116.354C101.256 124.321 94.8884 130.802 87.0611 130.802ZM86.433 128.434C81.0034 128.434 76.5861 123.937 76.5861 118.412C76.5861 112.886 81.0034 108.391 86.433 108.391C91.8625 108.391 96.2788 112.886 96.2788 118.412C96.2788 123.937 91.8615 128.434 86.433 128.434Z" fill="#FEFEFE"/>
<path fill-rule="evenodd" clip-rule="evenodd" d="M35.0985 118.413L76.4728 127.983L79.1965 125.206C79.3792 125.407 79.5698 125.601 79.7683 125.786L76.7296 128.885L76.5113 128.835L31.4584 118.413L76.7296 107.942L79.7673 111.041C79.5698 111.225 79.3802 111.418 79.1975 111.619L76.4728 108.842L35.0985 118.413Z" fill="#FEFEFE"/>
<path fill-rule="evenodd" clip-rule="evenodd" d="M76.5833 118.415H33.2793L76.6021 128.438L79.4778 125.505C77.6904 123.69 76.5833 121.181 76.5833 118.415Z" fill="#FEFEFE"/>
<path fill-rule="evenodd" clip-rule="evenodd" d="M75.8075 117.989L76.5935 117.99C76.5876 118.13 76.5837 118.27 76.5837 118.41C76.5837 118.545 76.5876 118.679 76.5926 118.812L75.3621 118.81L75.2435 118.618L55.8787 87.3174L86.8235 107.146L86.8245 108.399C86.6932 108.393 86.5618 108.39 86.4305 108.39C86.2922 108.39 86.155 108.394 86.0177 108.399L86.0167 107.6L58.4523 89.9356L75.8075 117.989Z" fill="#FEFEFE"/>
<path fill-rule="evenodd" clip-rule="evenodd" d="M96.2685 118.007H97.0338L114.389 89.9531L86.8245 107.617L86.8255 108.396C86.6942 108.39 86.5628 108.387 86.4315 108.387C86.2932 108.387 86.156 108.391 86.0187 108.396L86.0177 107.166L86.2063 107.043L116.963 87.3349L97.4792 118.83L96.2675 118.829C96.2734 118.689 96.2774 118.548 96.2774 118.408C96.2774 118.273 96.2734 118.139 96.2685 118.007Z" fill="#FEFEFE"/>
<path fill-rule="evenodd" clip-rule="evenodd" d="M86.8421 129.225L114.407 146.888L97.0513 118.835H96.2662C96.2712 118.695 96.2751 118.555 96.2751 118.414C96.2751 118.281 96.2712 118.147 96.2662 118.014L97.4967 118.015L97.6152 118.206L116.98 149.509L86.0362 129.68L86.0352 128.428C86.1656 128.433 86.2969 128.437 86.4292 128.437C86.5675 128.437 86.7048 128.433 86.8411 128.427L86.8421 129.225Z" fill="#FEFEFE"/>
<path fill-rule="evenodd" clip-rule="evenodd" d="M75.8253 118.809L58.4691 146.863L86.0336 129.202L86.0326 128.423C86.1639 128.428 86.2953 128.432 86.4276 128.432C86.5658 128.432 86.7031 128.428 86.8394 128.422L86.8404 129.653L86.6518 129.774L55.8965 149.482L75.3799 117.988L76.5906 117.99C76.5847 118.129 76.5807 118.269 76.5807 118.409C76.5807 118.544 76.5847 118.678 76.5896 118.81L75.8253 118.809Z" fill="#FEFEFE"/>
<path fill-rule="evenodd" clip-rule="evenodd" d="M93.3904 111.328L115.676 88.6478L86.4222 107.393L86.4232 108.39H86.4321C89.1469 108.39 91.6078 109.514 93.3904 111.328Z" fill="#FEFEFE"/>
<path fill-rule="evenodd" clip-rule="evenodd" d="M57.1631 88.6302L79.4688 111.331C77.6873 113.144 76.5842 115.646 76.5812 118.405L75.6026 118.404L57.1631 88.6302Z" fill="#FEFEFE"/>
<path fill-rule="evenodd" clip-rule="evenodd" d="M79.4737 125.496L57.1897 148.177L86.4438 129.43L86.4429 128.436H86.434C83.7192 128.436 81.2572 127.312 79.4737 125.496Z" fill="#FEFEFE"/>
<path fill-rule="evenodd" clip-rule="evenodd" d="M93.3895 125.494L115.694 148.195L97.2746 118.423L96.2762 118.422C96.2732 121.18 95.1701 123.682 93.3895 125.494Z" fill="#FEFEFE"/>
<path fill-rule="evenodd" clip-rule="evenodd" d="M77.0233 108.247L79.7647 111.043C79.5672 111.228 79.3766 111.422 79.1949 111.623L76.1384 108.506L86.4267 62.4326L96.715 108.506L93.6585 111.623C93.4758 111.422 93.2852 111.228 93.0877 111.043L95.8301 108.247L86.4267 66.1363L77.0233 108.247Z" fill="#FEFEFE"/>
<path fill-rule="evenodd" clip-rule="evenodd" d="M93.6612 125.206L96.3848 127.983L137.76 118.413L96.3848 108.842L93.6612 111.619C93.4785 111.418 93.2879 111.225 93.0904 111.041L96.1291 107.942L96.3463 107.992L141.399 118.413L96.1291 128.885L93.0904 125.786C93.2879 125.601 93.4785 125.407 93.6612 125.206Z" fill="#FEFEFE"/>
<path fill-rule="evenodd" clip-rule="evenodd" d="M77.0233 128.581L86.4267 170.69L95.8301 128.581L93.0877 125.784C93.2852 125.599 93.4758 125.405 93.6585 125.204L96.715 128.322L86.4267 174.393L76.1384 128.322L79.1949 125.204C79.3776 125.405 79.5672 125.599 79.7657 125.784L77.0233 128.581Z" fill="#FEFEFE"/>
<path fill-rule="evenodd" clip-rule="evenodd" d="M96.2743 118.416H139.579L96.2565 108.395L93.3807 111.327C95.1672 113.142 96.2743 115.65 96.2743 118.416Z" fill="#FEFEFE"/>
<path fill-rule="evenodd" clip-rule="evenodd" d="M86.4328 64.2799V108.39C83.721 108.39 81.262 109.511 79.4794 111.322L76.6047 108.39L86.4328 64.2799Z" fill="#FEFEFE"/>
<path fill-rule="evenodd" clip-rule="evenodd" d="M86.431 128.438V172.546L96.2769 128.456L93.3833 125.505C91.6008 127.316 89.1418 128.438 86.431 128.438Z" fill="#FEFEFE"/>
<defs>
<linearGradient id="paint0_linear_7_2" x1="200.906" y1="170.652" x2="11.0235" y2="29.3957" gradientUnits="userSpaceOnUse">
<stop stop-color="#FFBF00"/>
<stop offset="0.478431" stop-color="#F9961E"/>
<stop offset="1" stop-color="#F26D3D"/>
</linearGradient>
</defs>
</svg>
