<?xml version="1.0" encoding="UTF-8"?>
<!DOCTYPE svg PUBLIC "-//W3C//DTD SVG 1.1//EN" "http://www.w3.org/Graphics/SVG/1.1/DTD/svg11.dtd">
<!-- Creator: CorelDRAW 2018 (64 Bit Versão de avaliação) -->
<svg xmlns="http://www.w3.org/2000/svg" xml:space="preserve" width="210mm" height="297mm" version="1.1" style="shape-rendering:geometricPrecision; text-rendering:geometricPrecision; image-rendering:optimizeQuality; fill-rule:evenodd; clip-rule:evenodd"
viewBox="0 0 21000 29700"
 xmlns:xlink="http://www.w3.org/1999/xlink">
 <defs>
  <style type="text/css">
   <![CDATA[
    .fil0 {fill:#839F6B}
   ]]>
  </style>
 </defs>
 <g id="Camada_x0020_1">
  <metadata id="CorelCorpID_0Corel-Layer"/>
  <g id="_1967784696576">
   <path class="fil0" d="M4854.15 11308.83c0,127.44 -7.5,127.44 52.47,254.88 142.44,269.88 359.84,-59.97 457.3,-112.45 0,44.98 0,112.45 7.5,164.93 7.5,44.98 82.46,149.93 -97.46,344.85 -97.46,97.46 -217.4,172.42 -277.38,239.89 -37.48,52.48 -37.48,74.97 -97.45,104.96 -112.45,-142.44 -374.84,-217.41 -592.24,-217.41 22.49,119.95 97.46,15 389.83,217.41 329.85,224.9 194.91,562.25 187.41,674.7 -239.89,-299.87 -622.22,-382.33 -719.68,-689.7 -44.98,-127.44 52.48,-104.95 -74.96,-119.94 0,44.98 -15,59.97 -15,112.45 0,284.87 427.31,524.76 584.74,689.69 187.42,202.41 119.95,292.37 37.49,419.81 -314.86,517.28 -734.68,847.13 -1004.56,1559.32 -224.9,577.24 -179.92,1109.5 307.37,1529.32 209.9,172.42 562.25,314.86 884.6,359.84 539.77,82.46 1154.49,44.98 1694.25,-67.47l374.84 -82.46c82.46,-22.49 89.96,-7.5 97.46,-74.97l-449.81 37.48c-659.7,0 -1281.93,29.99 -1889.16,-307.36 -239.89,-134.94 -419.81,-307.37 -509.77,-584.74 -164.93,-517.27 44.98,-892.11 547.25,-1102.02 74.97,-37.48 149.94,-67.47 247.39,-104.95 202.41,-74.97 524.77,209.91 787.16,209.91 82.46,0 209.9,-22.49 209.9,-104.96 -82.46,-14.99 -89.96,22.49 -179.92,22.49 -97.45,0 -442.3,-179.92 -524.76,-239.89 172.42,-74.97 397.32,-202.41 524.76,-329.85 127.45,-142.44 149.94,-209.91 149.94,-404.82 -172.43,22.49 7.49,-15 -134.94,179.92 -292.37,397.32 -922.1,449.8 -1221.96,577.24 -82.47,29.99 -127.45,67.47 -217.41,97.46 29.99,-74.97 307.37,-479.79 359.84,-569.75 29.99,-52.48 52.48,-89.96 82.47,-142.44 254.88,-419.81 1034.54,-322.35 1409.37,-682.2 44.98,-44.98 149.94,-217.4 104.96,-314.86 -119.95,15 14.99,104.96 -299.87,292.37 -97.46,52.48 -359.84,157.43 -464.79,142.44 119.94,-164.93 89.96,-584.74 314.86,-727.18 74.96,-44.98 59.97,0 67.47,-89.96 -479.79,7.5 -292.37,802.15 -727.18,892.11 -67.47,14.99 -127.45,44.98 -187.42,44.98 322.36,-1004.56 -224.9,-862.12 104.95,-1184.48 119.95,-119.94 314.87,-247.39 277.38,-494.78 374.84,-7.5 382.33,-247.39 382.33,-607.23 -157.43,-14.99 -344.84,142.44 -427.31,247.39 22.49,-299.87 0,-322.36 -59.97,-584.74 -104.96,7.5 -164.93,82.46 -232.4,134.94 -112.45,89.96 -239.89,202.41 -239.89,389.83z"/>
   <path class="fil0" d="M3684.66 16541.51c-14.99,127.45 232.4,419.82 307.37,494.78 149.93,142.44 254.89,239.9 449.8,352.35 299.87,179.92 562.25,262.38 907.1,329.85 367.34,67.47 689.69,44.98 1049.53,22.49 59.98,0 82.47,-7.49 149.94,-14.99 367.34,-67.47 704.69,-157.43 1057.03,-262.39 569.75,-172.42 1094.52,-389.82 1724.24,-569.74 172.42,-52.48 359.84,-97.46 547.26,-127.45l584.74 -67.47c247.39,0 209.9,7.5 472.29,37.49 149.93,14.99 404.82,89.96 547.26,142.43 67.47,29.99 172.42,82.47 247.39,89.96 -44.98,-232.39 -629.72,-457.29 -899.61,-517.27 -97.45,-22.49 -299.86,-67.47 -404.82,-67.47 -847.12,0 -779.65,-7.49 -1611.78,179.92 -772.16,179.92 -1619.29,419.82 -2413.94,502.28 -652.21,59.97 -929.58,89.96 -1589.29,-22.49 -262.39,-37.48 -562.25,-157.43 -802.15,-292.37 -164.93,-97.46 -232.4,-217.4 -322.36,-209.91z"/>
   <path class="fil0" d="M8039.73 14707.09l488.11 -954.38 473.54 961.66 -961.65 -7.28zm-735.82 983.51c254.99,-7.29 -58.28,0 196.7,-7.29l429.84 -808.66 1187.5 0c160.27,276.84 291.41,539.11 444.4,815.95l211.27 0 -1238.49 -2331.29c-7.29,-29.14 -1027.23,1930.6 -1231.22,2331.29z"/>
   <path class="fil0" d="M11711.93 14984.81c0,-249.42 285.84,-463.21 585.62,-463.21 285.84,0 599.57,199.54 599.57,520.22 0,242.3 -202.18,491.72 -585.62,513.1 -411.33,-21.38 -599.57,-292.18 -599.57,-505.97l0 -64.14zm494.99 741.14c285.84,0 460.13,-42.76 704.14,-235.17l0 199.54 202.18 0 0 -1339.75 -202.18 0 0 220.91c-571.68,-470.34 -1373.42,-156.78 -1408.28,391.95 -34.86,477.47 376.47,762.52 704.14,762.52z"/>
   <path class="fil0" d="M9896.72 15027.31c0,521.43 387.35,707.66 767.25,707.66 320.31,0 573.58,-81.94 670.42,-253.27 0,-104.29 0,-230.92 0,-342.66 -193.68,476.74 -1229.1,662.97 -1229.1,-111.73 0,-320.31 350.11,-499.09 625.72,-499.09 320.31,0 432.05,163.88 610.83,402.25l0 -305.41c-223.47,-379.9 -1445.12,-484.19 -1445.12,402.25z"/>
   <path class="fil0" d="M5678.78 11083.93c112.45,0 209.91,-44.98 284.88,-89.96 164.92,-97.46 239.89,-322.36 284.87,-502.28 22.49,-89.96 44.98,-254.89 44.98,-344.85 -239.89,-22.49 -727.18,127.44 -854.62,442.3 -29.99,82.47 -22.49,134.95 -22.49,239.9 0,187.42 -7.5,254.89 262.38,254.89z"/>
   <path class="fil0" d="M4321.88 10634.13l0 119.94c0,127.45 119.95,359.84 209.91,359.84 97.46,0 254.89,-74.96 307.36,-119.94 307.37,-224.9 194.92,-839.63 89.96,-1034.55 -157.43,15 -607.23,412.32 -607.23,674.71z"/>
   <path class="fil0" d="M7200.61 13392.9l119.95 0c224.9,0 644.71,-284.87 689.69,-427.31 0,-59.97 -194.91,-134.94 -239.89,-157.43 -247.39,-104.95 -584.74,-164.92 -802.15,22.49 -29.98,29.99 -142.43,179.92 -157.43,232.4 -37.48,149.93 262.39,329.85 389.83,329.85z"/>
   <path class="fil0" d="M3714.65 10619.13c0,-277.38 -157.43,-479.79 -337.35,-637.22 -67.47,-59.97 -89.96,-127.44 -209.91,-142.43 -22.49,74.96 -59.97,142.43 -82.46,209.9 -22.49,67.47 -52.48,172.43 -59.97,247.39 -89.96,674.71 419.81,742.18 464.79,719.69 82.46,-29.99 224.9,-232.4 224.9,-397.33z"/>
   <path class="fil0" d="M6375.97 12028.51c0,97.46 0,149.93 89.96,187.42 629.73,232.39 937.09,-554.76 929.59,-757.17 -292.37,0 -472.29,-14.99 -704.68,82.46 -89.97,37.49 -157.44,97.46 -217.41,179.92 -59.97,82.47 -97.46,217.41 -97.46,307.37z"/>
   <path class="fil0" d="M1525.62 10814.05c-29.99,157.43 172.42,757.16 502.28,832.13 97.45,29.98 329.85,22.49 404.82,-29.99 52.48,-37.48 277.38,-802.14 -907.1,-802.14z"/>
   <path class="fil0" d="M2440.21 13887.69c292.38,0 419.82,7.49 644.72,-89.96 337.35,-142.44 329.85,-359.84 329.85,-622.23 0,-127.44 -442.3,-202.41 -682.19,44.98 -82.47,82.46 -149.94,187.42 -187.42,299.87 -37.48,97.46 -97.46,269.88 -104.96,367.34z"/>
   <path class="fil0" d="M1825.49 12883.13l172.42 0c104.95,0 307.36,-149.93 284.87,-269.88 -52.47,-209.91 -262.38,-239.89 -442.3,-239.89 -134.94,0 -464.79,149.93 -472.29,239.89 -7.5,59.97 127.44,142.44 179.92,172.42 59.97,29.99 194.91,97.46 277.38,97.46z"/>
   <path class="fil0" d="M3759.63 11098.92l0 104.95c0,134.94 157.43,344.85 277.38,314.86 164.93,-44.98 254.89,-224.9 254.89,-434.8 0,-104.96 -82.47,-277.38 -142.44,-374.84 -29.99,-59.97 -37.48,-74.96 -82.46,-104.95 -97.46,22.49 -134.94,119.95 -187.42,202.41 -44.98,67.47 -119.95,209.91 -119.95,292.37z"/>
   <path class="fil0" d="M2372.74 12620.75c7.5,104.95 74.97,157.43 194.92,232.39 389.83,247.39 712.18,22.49 712.18,-112.45 0,-59.97 -44.98,-134.94 -82.46,-172.42 -37.48,-37.48 -7.5,-7.5 -44.98,-37.48 -239.89,-187.42 -577.24,-44.98 -779.66,89.96z"/>
   <path class="fil0" d="M3797.11 10071.87c0,142.44 -7.49,142.44 67.47,277.38 119.95,209.91 239.9,112.45 367.34,-14.99 217.41,-217.41 7.5,-689.7 -97.45,-772.16 -127.45,22.49 -337.36,337.35 -337.36,509.77z"/>
   <path class="fil0" d="M6383.47 12298.39c-134.94,37.48 -367.34,224.9 -224.9,382.33 127.44,142.44 359.84,157.43 554.76,67.47 82.46,-37.48 134.94,-89.96 202.41,-142.44 59.97,-52.47 179.92,-119.94 44.98,-202.41 -134.94,-74.96 -397.33,-157.43 -577.25,-104.95z"/>
   <path class="fil0" d="M7103.15 12418.34c397.33,367.33 847.13,-194.92 854.62,-397.33 -209.9,-59.97 -577.24,-89.96 -734.67,74.97 -74.97,67.47 -104.95,202.41 -119.95,322.36z"/>
   <path class="fil0" d="M3302.33 13992.64l187.42 0c247.39,0 554.76,-157.43 554.76,-427.31l0 -134.94c-119.95,-142.44 -419.82,-74.97 -532.27,37.48 -82.46,82.47 -217.4,397.33 -209.91,524.77z"/>
   <path class="fil0" d="M1862.97 11886.07c7.5,97.46 127.44,239.9 187.42,307.37 254.88,307.36 622.22,134.94 652.21,52.47 37.48,-89.96 -67.47,-329.85 -224.9,-389.83 -202.41,-74.96 -569.75,-59.97 -614.73,29.99z"/>
   <path class="fil0" d="M5971.15 11856.08c599.74,0 442.31,-824.63 374.84,-839.62 -52.48,-15 -532.27,224.9 -502.28,577.24 14.99,89.96 59.97,217.4 127.44,262.38z"/>
   <path class="fil0" d="M2477.7 10799.05c112.45,0 149.93,22.49 194.91,-104.95 44.98,-127.45 37.49,-247.39 -29.98,-359.84 -44.98,-89.96 -59.98,-82.47 -119.95,-134.94 -59.97,-52.48 -239.9,-194.92 -337.35,-194.92 -67.47,0 -67.47,29.99 -74.97,224.9 -14.99,239.9 89.96,569.75 367.34,569.75z"/>
   <path class="fil0" d="M6555.89 11136.4c0,52.48 0,232.4 44.98,277.38 89.97,59.97 614.73,67.47 614.73,-704.69 -269.88,-29.98 -659.71,202.41 -659.71,427.31z"/>
   <path class="fil0" d="M5491.37 9674.55c-187.42,74.97 -479.79,359.84 -434.81,637.22 7.49,67.47 89.96,217.4 127.44,239.89 59.97,37.48 329.86,-44.98 397.33,-269.88 37.48,-142.44 7.49,-344.85 -29.99,-472.29 -7.5,-37.48 -7.5,-37.48 -14.99,-67.47l-44.98 -67.47z"/>
   <path class="fil0" d="M1743.02 13355.42c127.45,89.96 322.36,119.95 494.78,119.95 194.92,0 382.34,-157.43 397.33,-374.84 -7.5,-44.98 -149.93,-164.92 -329.86,-164.92 -254.88,0 -539.76,299.86 -562.25,419.81z"/>
   <path class="fil0" d="M1120.8 11616.19c0,224.9 217.4,592.24 412.32,592.24 164.92,0 149.93,14.99 292.37,-52.48l0 -202.41c0,-299.87 -412.32,-404.82 -704.69,-412.32l0 74.97z"/>
   <path class="fil0" d="M3189.88 11691.16c142.44,-277.38 127.45,-419.82 -104.95,-629.72 -89.96,-82.47 -247.39,-187.42 -374.83,-172.43 -44.98,449.8 -7.5,802.15 479.78,802.15z"/>
   <path class="fil0" d="M13482.83 15724.37c247.39,0 164.93,0 247.39,0l-7.49 -1364.39 -232.4 -7.5 -7.5 1371.89z"/>
   <polygon class="fil0" points="17971.55,14231.83 18301.4,14239.33 18878.65,13774.53 18571.28,13774.53 "/>
   <path class="fil0" d="M2972.48 12208.43c142.44,0 217.4,7.5 202.41,-157.43 -22.49,-284.88 -239.89,-344.85 -554.75,-344.85 0,232.4 142.43,502.28 352.34,502.28z"/>
   <path class="fil0" d="M4156.96 11751.13c0,104.95 59.97,179.92 104.95,239.89 427.31,-29.98 344.85,-532.26 269.88,-659.7 -119.95,0 -374.83,209.9 -374.83,419.81z"/>
   <path class="fil0" d="M4951.6 14787.29l0 149.93c0,284.88 359.85,307.37 562.26,307.37 0,-224.9 -157.43,-494.79 -382.34,-494.79 -59.97,0 -119.94,22.49 -179.92,37.49z"/>
   <path class="fil0" d="M7597.93 13775.24c-127.44,-97.46 -472.29,-187.42 -614.72,-15 -247.39,299.87 179.92,337.35 322.35,284.88 119.95,-44.98 277.38,-172.43 292.37,-269.88z"/>
   <path class="fil0" d="M5648.8 14869.75c0,404.82 419.81,382.33 629.72,307.37 -7.5,-142.44 -134.94,-277.38 -209.91,-337.35 -134.94,-97.46 -322.36,-67.48 -419.81,29.98z"/>
   <path class="fil0" d="M5993.64 14217.54c-7.49,239.89 157.43,352.34 269.88,352.34 59.98,0 337.35,15 359.84,-59.97 -7.49,-119.95 -149.93,-277.38 -232.39,-322.36 -127.45,-67.47 -269.88,-67.47 -397.33,29.99z"/>
   <path class="fil0" d="M6570.89 14180.06c0,194.91 149.93,337.35 307.36,337.35 44.98,0 329.86,7.49 337.35,-59.98 -14.99,-67.47 -97.45,-187.41 -134.94,-232.39 -187.41,-202.41 -449.8,-149.94 -509.77,-44.98z"/>
   <path class="fil0" d="M6256.03 10686.6c0,202.41 -7.5,104.96 37.48,262.39 179.92,0 292.37,0 359.84,-142.44 52.48,-104.95 67.47,-299.87 44.98,-449.8 -59.97,0 -209.91,59.97 -269.88,104.95 -67.47,44.98 -172.42,119.95 -172.42,224.9z"/>
   <path class="fil0" d="M3399.79 12965.59c44.98,104.96 307.36,97.46 397.32,97.46 149.94,0 269.89,-134.94 277.38,-284.87 -29.98,-89.96 -307.36,-194.92 -532.26,-7.5 -37.49,29.99 -52.48,44.98 -82.47,82.46 -44.98,44.98 -52.47,52.48 -59.97,112.45z"/>
   <path class="fil0" d="M6705.83 13760.24c217.4,0 412.32,-149.93 464.79,-262.38 -74.96,-119.95 -592.24,-269.88 -689.69,67.47 -29.99,104.95 149.93,194.91 224.9,194.91z"/>
   <path class="fil0" d="M3399.79 11526.23l0 119.95c0,119.94 112.45,262.38 254.89,262.38 112.45,0 239.89,-299.87 37.48,-532.26 -44.98,-52.48 -119.95,-134.94 -187.42,-149.94l-22.49 22.49c-7.49,15 -7.49,7.5 -22.49,37.49l-59.97 239.89z"/>
   <path class="fil0" d="M6383.47 14982.2c157.43,0 382.33,-74.96 164.93,-209.91 -337.35,-209.9 -427.31,209.91 -164.93,209.91z"/>
   <path class="fil0" d="M3797.11 12193.44c0,337.35 382.34,179.92 217.41,-164.93 -97.46,-194.92 -217.41,74.97 -217.41,164.93z"/>
   <path class="fil0" d="M6390.97 13910.18c0,67.47 14.99,89.96 59.97,119.94 157.43,89.96 352.35,-82.46 359.84,-97.45 44.98,-89.96 -307.36,-247.39 -419.81,-22.49z"/>
   <path class="fil0" d="M3557.22 12620.75l119.95 0c82.46,0 119.94,-74.97 119.94,-164.93 -22.49,-127.44 -344.84,-97.46 -404.82,29.99 -44.98,97.45 164.93,134.94 164.93,134.94z"/>
   <path class="fil0" d="M5828.72 12125.97l7.49 82.46c262.39,89.96 359.84,-119.95 352.35,-269.88 -127.45,0 -359.84,-7.5 -359.84,187.42z"/>
   <path class="fil0" d="M4704.21 11803.61c0,82.46 7.5,217.4 119.95,217.4 202.41,-29.99 142.44,-359.84 14.99,-427.31 -52.47,22.49 -134.94,119.95 -134.94,209.91z"/>
   <path class="fil0" d="M5506.36 12200.93c284.87,29.99 224.9,-337.35 157.43,-412.32 -44.98,15 -149.93,97.46 -179.92,142.44 -52.48,89.96 -22.49,194.92 22.49,269.88z"/>
   <path class="fil0" d="M3332.32 12028.51c0,254.89 22.49,322.36 254.89,299.87 119.94,-284.88 -254.89,-442.31 -254.89,-299.87z"/>
   <path class="fil0" d="M4111.98 13385.41c119.94,22.49 277.37,-82.47 277.37,-194.92l-14.99 -157.43c-269.88,-22.49 -262.38,112.45 -262.38,352.35z"/>
   <circle class="fil0" cx="13617.45" cy="14012.68" r="150.85"/>
   <path class="fil0" d="M14233.91 14984.81c0,-249.42 285.52,-463.21 584.96,-463.21 285.53,0 598.9,199.54 598.9,520.22 0,242.3 -201.95,491.72 -584.97,513.1 -410.87,-21.38 -598.89,-292.18 -598.89,-505.97l0 -64.14zm494.43 741.14c285.52,0 459.62,-42.76 703.36,-235.17l0 199.54 201.95 0 0 -1339.75 -201.95 0 0 220.91c-571.04,-470.34 -1371.89,-156.78 -1406.71,391.95 -34.82,477.47 376.05,762.52 703.35,762.52z"/>
   <path class="fil0" d="M15918.55 15027.31c0,521.43 387.35,707.66 767.25,707.66 320.31,0 573.58,-81.94 670.41,-253.27 0,-104.29 0,-230.92 0,-342.66 -193.67,476.74 -1229.09,662.97 -1229.09,-111.73 0,-320.31 350.11,-499.09 625.72,-499.09 320.31,0 432.05,163.88 610.82,402.25l0 -305.41c-223.47,-379.9 -1445.11,-484.19 -1445.11,402.25z"/>
   <path class="fil0" d="M17785.51 14984.81c0,-249.42 285.52,-463.21 584.97,-463.21 285.52,0 598.89,199.54 598.89,520.22 0,242.3 -201.95,491.72 -584.97,513.1 -410.87,-21.38 -598.89,-292.18 -598.89,-505.97l0 -64.14zm494.44 741.14c285.52,0 459.61,-42.76 703.35,-235.17l0 199.54 201.95 0 0 -1339.75 -201.95 0 0 220.91c-571.04,-470.34 -1371.89,-156.78 -1406.71,391.95 -34.82,477.47 376.05,762.52 703.36,762.52z"/>
  </g>
 </g>
</svg>
