<svg width="598" height="280" viewBox="0 0 598 280" fill="none" xmlns="http://www.w3.org/2000/svg">
<path fill-rule="evenodd" clip-rule="evenodd" d="M137.838 0C188.981 0 233.619 28.1126 257.408 69.8614C190.54 147.3 257.408 69.8614 190.54 147.3C147.534 99.0734 190.54 147.3 147.534 99.0734C32.0074 228.255 147.534 99.0734 32.0074 228.255C12.0257 204.115 0 173.033 0 139.117C0 62.2842 61.7115 0 137.838 0Z" fill="url(#paint0_linear_1_28084)"/>
<path d="M233.514 139.273V140.489L223.953 140.47C224.084 138.242 223.73 136.855 224.169 136.724L224.629 136.913C224.629 136.446 225.099 135.899 224.115 133.518C221.761 129.887 222.031 124.395 222.46 122.103L216.633 118.352C216.388 121.689 214.899 127.084 213.612 128.019C212.877 128.553 212.611 133.047 212.57 135.228C212.57 137.453 212.57 139.678 212.57 141.903C214.011 140.817 212.059 143.84 216.776 143.84C218.011 144.507 216.776 145.667 216.776 146.58C214.128 146.601 207.241 151.525 208.183 146.711C208.756 144.464 207.696 143.144 208.253 143.178H209.049C208.989 142.355 208.747 139.007 208.551 133.561C208.354 128.113 209.695 123.858 210.389 122.412L210.076 115.348C210.117 114.925 210.175 114.026 210.076 113.813C209.978 113.599 209.709 113.723 209.586 113.813L207.748 117.217H207.38V116.349H207.748V113.279H206.706V115.481C206.461 115.504 205.884 115.575 205.541 115.682C205.198 115.789 204.581 116.839 204.316 117.351L203.642 117.217C203.621 116.817 203.593 115.949 203.642 115.682C203.691 115.414 204.724 114.814 205.235 114.547C205.215 114.391 205.185 113.786 205.235 112.612C205.284 111.436 204.928 111.231 204.745 111.276C204.561 111.299 204.169 111.182 204.07 110.542C203.973 109.901 204.479 109.473 204.745 109.34V105.788C204.677 105.802 204.49 105.797 204.07 105.735C203.336 105.629 202.825 105.246 202.661 105.068L199.045 96.9909C199.045 96.6122 199.181 95.7489 199.72 95.3214C200.26 94.8945 200.026 94.2541 199.842 93.9868C199.393 93.541 198.469 92.2375 198.372 90.5819C198.273 88.9274 199.148 87.8457 199.597 87.5119H201.681C202.212 86.7551 203.556 85.242 204.684 85.242C205.369 83.9074 207.707 83.3951 208.79 83.3063C208.749 82.9282 208.851 82.1448 209.586 82.0378C210.505 81.9041 210.628 82.7724 210.628 83.1056C210.628 83.4394 211.547 83.1727 212.466 82.371C214.329 80.8762 213.937 79.4346 213.508 78.9006C213.222 78.5669 212.65 77.4718 212.65 75.763C212.65 73.6267 213.63 70.3559 217.614 70.2894C221.597 70.2223 221.351 73.1587 221.658 75.4952C222.202 76.2287 222.451 76.8614 222.631 77.1641C222.71 77.2972 222.485 77.7646 222.448 77.7646C222.398 77.7646 222.169 77.8987 221.903 77.8987C221.883 77.8549 221.687 77.9392 221.903 78.2996C222.264 78.899 221.802 79.0853 221.701 79.1734L220.984 79.2344C221.119 79.2006 221.757 79.1324 221.896 79.1662C221.966 79.1668 221.954 79.4346 221.912 79.5067C221.778 79.734 221.434 79.7961 221.474 80.3694C221.57 81.8853 220.988 81.8515 220.617 81.9047C219.472 82.7275 217.381 84.5478 218.166 85.242C219.782 86.4701 219.942 92.029 219.82 94.6544C219.698 97.4577 219.452 104.935 220.371 106.002C220.74 106.87 222.209 108.606 223.62 109.807C224.747 110.769 224.252 111.944 223.864 112.411L223.129 113.479C224.395 114.903 226.125 115.949 226.566 116.429C227.007 116.909 227.076 118.009 227.056 118.498L227.103 135.651C227.978 134.897 227.048 137.431 231.253 138.054C232.455 138.054 233.464 139.082 233.514 139.273Z" fill="black"/>
<path d="M221.593 73.4759L210.708 77.2029L210.82 77.5356L221.705 73.8091L221.593 73.4759Z" fill="black" stroke="#201E1E" stroke-width="0.0651975" stroke-miterlimit="22.9256"/>
<path fill-rule="evenodd" clip-rule="evenodd" d="M249.017 223.787C279.497 182.338 283.735 129.407 264.697 85.2442C190.599 169.492 264.697 85.2442 190.599 169.492C152.367 124.815 187.483 165.846 150.378 123.15V155.284L142.396 149.274V123.604L41.5391 239.942C46.0622 244.432 50.9459 248.66 56.1847 252.584C117.313 298.375 203.647 285.482 249.017 223.787ZM123.013 174.845L129.735 179.232L101.936 211.447C95.5679 218.312 95.9725 218.216 104.138 227.523C110.211 234.453 110.211 234.453 110.211 234.453L104.627 239.637L99.377 233.654C85.807 218.187 85.7677 218.142 95.5928 206.48C104.761 196.884 123.013 174.845 123.013 174.845Z" fill="#365902"/>
<path fill-rule="evenodd" clip-rule="evenodd" d="M77.7349 42.8425L77.6545 43.1905C77.5658 43.2014 77.4378 43.2183 77.2682 43.2411C77.0992 43.2655 76.934 43.3287 76.7728 43.4315C76.6375 43.5174 76.5217 43.6649 76.4247 43.8764C76.3288 44.0862 76.233 44.3928 76.1387 44.799L75.0242 49.664H74.2267L71.3281 44.2319L70.56 47.6242C70.5184 47.8019 70.4874 47.9687 70.4652 48.1255C70.4425 48.2813 70.4314 48.406 70.4314 48.4979C70.4314 48.6285 70.4442 48.7296 70.4702 48.8012C70.4951 48.8737 70.5317 48.9335 70.5788 48.9807C70.6514 49.054 70.7784 49.1189 70.9601 49.172C71.1414 49.2259 71.2766 49.2613 71.3653 49.2781L71.2838 49.6261H68.3936L68.475 49.2781C68.5598 49.2646 68.6945 49.2428 68.8796 49.2107C69.0642 49.1787 69.2227 49.1214 69.3557 49.0388C69.4942 48.9504 69.6112 48.8029 69.7059 48.6007C69.8007 48.3985 69.8938 48.0901 69.9858 47.6764L70.7174 44.483C70.7329 44.4097 70.7462 44.3406 70.7573 44.2749C70.7689 44.2083 70.7739 44.1485 70.7739 44.0954C70.7739 44.0002 70.7628 43.9084 70.7407 43.8208C70.719 43.7323 70.678 43.6523 70.6171 43.579C70.5284 43.4694 70.4198 43.3868 70.2895 43.327C70.1604 43.2689 70.0085 43.2234 69.834 43.1905L69.9193 42.8425H72.4028L74.9383 47.6258L75.5684 44.8462C75.6128 44.6423 75.6449 44.4755 75.6654 44.3465C75.6859 44.2176 75.6959 44.0972 75.6959 43.985C75.6959 43.8603 75.6826 43.7593 75.656 43.6818C75.6294 43.6034 75.5912 43.5385 75.5402 43.4879C75.4709 43.418 75.349 43.3548 75.1733 43.3001C74.9993 43.2427 74.864 43.2074 74.7693 43.1905L74.8496 42.8425H77.7349Z" fill="#FEFEFE" stroke="#FEFEFE" stroke-width="0.288" stroke-miterlimit="22.9256"/>
<path fill-rule="evenodd" clip-rule="evenodd" d="M72.6393 155.794C72.2663 155.794 71.8916 155.745 71.5142 155.652C71.1368 155.56 70.8059 155.433 70.5216 155.272L70.1143 155.606H69.7119L70.214 153.154H70.6219C70.6591 153.394 70.7283 153.642 70.8298 153.898C70.9306 154.156 71.0614 154.385 71.2227 154.587C71.3807 154.793 71.5807 154.967 71.8246 155.103C72.0679 155.241 72.3456 155.311 72.6576 155.311C73.1159 155.311 73.4828 155.197 73.7571 154.971C74.032 154.748 74.1689 154.45 74.1689 154.084C74.1689 153.848 74.0913 153.64 73.9345 153.461C73.7782 153.283 73.526 153.129 73.1785 153.002C72.9585 152.922 72.744 152.845 72.5379 152.77C72.3306 152.695 72.1338 152.617 71.9476 152.537C71.5785 152.381 71.3003 152.159 71.1141 151.869C70.9273 151.58 70.8348 151.274 70.8348 150.948C70.8348 150.649 70.9024 150.361 71.0381 150.084C71.1734 149.809 71.3696 149.562 71.6251 149.344C71.875 149.131 72.1837 148.959 72.5517 148.83C72.9192 148.7 73.3232 148.636 73.7616 148.636C74.1279 148.636 74.4909 148.689 74.8512 148.796C75.2114 148.905 75.4763 149.01 75.6476 149.109L76.0023 148.823H76.4146L75.9219 151.137H75.5146C75.473 150.865 75.4137 150.609 75.3367 150.37C75.2591 150.13 75.1532 149.915 75.0169 149.722C74.8844 149.537 74.7193 149.39 74.522 149.279C74.3252 149.169 74.0869 149.114 73.8092 149.114C73.4241 149.114 73.1026 149.223 72.8449 149.44C72.5877 149.657 72.4592 149.93 72.4592 150.26C72.4592 150.489 72.5368 150.69 72.6914 150.862C72.8455 151.035 73.091 151.186 73.4257 151.313C73.6214 151.386 73.8264 151.461 74.0409 151.539C74.2559 151.617 74.461 151.698 74.6572 151.781C75.023 151.935 75.3117 152.143 75.524 152.405C75.7351 152.669 75.841 152.982 75.841 153.342C75.841 153.683 75.7634 154.004 75.6088 154.303C75.4547 154.604 75.2386 154.862 74.9603 155.079C74.6666 155.309 74.3241 155.485 73.9317 155.608C73.541 155.732 73.1093 155.794 72.6393 155.794Z" fill="#FEFEFE" stroke="#FEFEFE" stroke-width="0.288" stroke-miterlimit="22.9256"/>
<path fill-rule="evenodd" clip-rule="evenodd" d="M127.878 95.8332L127.485 97.5636H127.13C127.086 97.2609 126.979 96.9842 126.809 96.7314C126.64 96.4802 126.462 96.3328 126.276 96.2912C126.187 96.2695 126.059 96.2562 125.892 96.2518C125.724 96.2452 125.584 96.2435 125.474 96.2435H124.544L123.937 98.8927H124.583C124.82 98.8927 125.006 98.8661 125.14 98.8134C125.275 98.7607 125.401 98.687 125.518 98.5905C125.606 98.5168 125.71 98.387 125.828 98.1963C125.948 98.0067 126.032 97.8459 126.082 97.71H126.438L125.789 100.542H125.434V100.364C125.434 100.222 125.419 100.075 125.388 99.9229C125.358 99.7715 125.323 99.665 125.281 99.6035C125.2 99.4832 125.091 99.4028 124.954 99.3634C124.818 99.3229 124.663 99.3035 124.489 99.3035H123.843L123.411 101.192C123.389 101.287 123.368 101.392 123.349 101.502C123.33 101.613 123.322 101.693 123.322 101.741C123.322 101.946 123.387 102.073 123.52 102.127C123.653 102.179 123.897 102.206 124.254 102.206C124.709 102.206 125.04 102.185 125.249 102.146C125.457 102.105 125.614 102.045 125.718 101.961C125.907 101.802 126.135 101.558 126.4 101.231C126.666 100.902 126.845 100.659 126.941 100.503H127.286L126.675 102.616H120.418L120.498 102.266C120.577 102.264 120.695 102.254 120.851 102.235C121.007 102.219 121.123 102.198 121.199 102.172C121.323 102.131 121.416 102.067 121.48 101.98C121.546 101.893 121.591 101.796 121.616 101.684L122.702 96.941C122.718 96.8756 122.728 96.819 122.735 96.7741C122.742 96.7297 122.745 96.6959 122.745 96.6749C122.745 96.5401 122.678 96.4353 122.543 96.3605C122.41 96.2862 122.19 96.2263 121.887 96.1808L121.968 95.8332H127.878Z" fill="#FEFEFE" stroke="#FEFEFE" stroke-width="0.288" stroke-miterlimit="22.9256"/>
<path fill-rule="evenodd" clip-rule="evenodd" d="M26.5764 95.8332L26.4913 96.1808C26.3869 96.1919 26.2834 96.2147 26.179 96.2524C26.0747 96.2912 25.9736 96.3344 25.8751 96.3815C25.724 96.4581 25.6055 96.544 25.5203 96.6377C25.4352 96.7331 25.3467 96.8567 25.2549 97.0136C24.9426 97.5453 24.4877 98.3327 23.8907 99.3751C23.2938 100.417 22.6627 101.523 21.9965 102.692H21.0114L20.4053 97.6928L17.6763 102.692H16.7287C16.596 101.497 16.4741 100.374 16.3614 99.3224C16.2496 98.2706 16.1652 97.4943 16.1085 96.9948C16.0859 96.8246 16.0508 96.7009 16.0016 96.6194C15.9523 96.5385 15.8689 96.4542 15.7478 96.3682C15.6727 96.3139 15.59 96.2729 15.5024 96.2452C15.4139 96.2191 15.3112 96.198 15.1943 96.1808L15.2745 95.8332H18.7899L18.7048 96.1808C18.4777 96.2069 18.3007 96.2341 18.1746 96.2618C18.0478 96.2912 17.9534 96.3233 17.89 96.3588C17.8341 96.391 17.8007 96.4265 17.7906 96.4658C17.7815 96.5063 17.7773 96.5457 17.7773 96.5889C17.7773 96.651 17.7798 96.7253 17.7865 96.8113C17.7923 96.8955 17.8007 96.9859 17.8099 97.0852C17.8357 97.384 17.8825 97.8575 17.951 98.5046C18.0194 99.1527 18.097 99.9079 18.183 100.771L20.8303 95.8332H21.8371L22.4481 100.922C22.823 100.239 23.1711 99.6013 23.4926 99.0063C23.8148 98.4131 24.0694 97.9313 24.2589 97.562C24.3749 97.3369 24.4768 97.1262 24.5645 96.9316C24.6513 96.737 24.6947 96.6116 24.6947 96.5551C24.6947 96.4547 24.6112 96.3738 24.4451 96.3106C24.2798 96.2468 24.0377 96.2036 23.7188 96.1808L23.8039 95.8332H26.5764Z" fill="#FEFEFE" stroke="#FEFEFE" stroke-width="0.288" stroke-miterlimit="22.9256"/>
<path fill-rule="evenodd" clip-rule="evenodd" d="M73.5956 109.656C66.9788 109.656 61.5957 104.223 61.5957 97.5437C61.5957 90.8664 66.9788 85.4321 73.5956 85.4321C80.2124 85.4321 85.5955 90.8664 85.5955 97.5437C85.5955 104.223 80.2124 109.656 73.5956 109.656ZM73.0647 107.67C68.4746 107.67 64.7403 103.901 64.7403 99.2686C64.7403 94.6355 68.4746 90.868 73.0647 90.868C77.6547 90.868 81.3879 94.6355 81.3879 99.2686C81.3879 103.901 77.6536 107.67 73.0647 107.67Z" fill="#FEFEFE"/>
<path fill-rule="evenodd" clip-rule="evenodd" d="M29.6718 99.2681L64.6482 107.291L66.9504 104.963C67.105 105.131 67.2657 105.294 67.4336 105.449L64.8648 108.047L64.6803 108.006L26.5947 99.2681L64.8648 90.4905L67.4331 93.0881C67.2657 93.2428 67.1055 93.4047 66.9515 93.5733L64.6482 91.2451L29.6718 99.2681Z" fill="#FEFEFE"/>
<path fill-rule="evenodd" clip-rule="evenodd" d="M64.7399 99.2681H28.1328L64.756 107.67L67.1868 105.212C65.676 103.69 64.7399 101.587 64.7399 99.2681Z" fill="#FEFEFE"/>
<path fill-rule="evenodd" clip-rule="evenodd" d="M64.0844 98.9154L64.7489 98.9159C64.744 99.0329 64.7406 99.1505 64.7406 99.268C64.7406 99.3811 64.744 99.4931 64.7478 99.6051L63.7076 99.6035L63.6073 99.4427L47.2373 73.2025L73.397 89.8256L73.3975 90.8752C73.2867 90.8702 73.1753 90.8675 73.0644 90.8675C72.9475 90.8675 72.8316 90.8713 72.7153 90.8752L72.7147 90.2054L49.4129 75.397L64.0844 98.9154Z" fill="#FEFEFE"/>
<path fill-rule="evenodd" clip-rule="evenodd" d="M81.3806 98.932H82.0274L96.6986 75.4143L73.3971 90.2227L73.3976 90.8753C73.2868 90.8703 73.1754 90.868 73.0646 90.868C72.9476 90.868 72.8318 90.8714 72.7154 90.8753L72.7148 89.844L72.8745 89.7414L98.8744 73.2192L82.4037 99.6223L81.3795 99.6212C81.3845 99.5042 81.3878 99.3862 81.3878 99.2681C81.3878 99.1555 81.3845 99.0435 81.3806 98.932Z" fill="#FEFEFE"/>
<path fill-rule="evenodd" clip-rule="evenodd" d="M73.4137 108.331L96.7157 123.138L82.044 99.6201H81.3806C81.3844 99.5031 81.3878 99.3862 81.3878 99.2681C81.3878 99.1561 81.3844 99.0441 81.3806 98.9326L82.4208 98.9337L82.5206 99.094L98.891 125.336L72.7326 108.713L72.7314 107.663C72.8417 107.667 72.9526 107.67 73.0645 107.67C73.1815 107.67 73.2979 107.667 73.4126 107.662L73.4137 108.331Z" fill="#FEFEFE"/>
<path fill-rule="evenodd" clip-rule="evenodd" d="M64.1017 99.6035L49.4296 123.121L72.7315 108.316L72.7304 107.663C72.8417 107.667 72.9526 107.67 73.0645 107.67C73.1815 107.67 73.2973 107.667 73.4126 107.662L73.4137 108.694L73.2541 108.795L47.2549 125.317L63.7254 98.9149L64.7485 98.9165C64.7435 99.033 64.7402 99.1499 64.7402 99.268C64.7402 99.3812 64.7435 99.4932 64.748 99.6046L64.1017 99.6035Z" fill="#FEFEFE"/>
<path fill-rule="evenodd" clip-rule="evenodd" d="M78.9464 93.331L97.7859 74.317L73.0557 90.0319L73.0568 90.8681H73.064C75.359 90.8681 77.4395 91.8101 78.9464 93.331Z" fill="#FEFEFE"/>
<path fill-rule="evenodd" clip-rule="evenodd" d="M48.3252 74.3004L67.1813 93.3304C65.6755 94.8507 64.7427 96.9476 64.7405 99.2614L63.913 99.2608L48.3252 74.3004Z" fill="#FEFEFE"/>
<path fill-rule="evenodd" clip-rule="evenodd" d="M67.1807 105.206L48.3428 124.22L73.0732 108.504L73.072 107.67H73.0648C70.7698 107.67 68.6882 106.728 67.1807 105.206Z" fill="#FEFEFE"/>
<path fill-rule="evenodd" clip-rule="evenodd" d="M78.9473 105.206L97.8028 124.236L82.2316 99.2775L81.3875 99.2764C81.3853 101.59 80.4525 103.687 78.9473 105.206Z" fill="#FEFEFE"/>
<path fill-rule="evenodd" clip-rule="evenodd" d="M65.1154 90.7439L67.4326 93.0881C67.2657 93.2428 67.1045 93.4058 66.9509 93.5744L64.3672 90.9612L73.0645 52.3368L81.7618 90.9612L79.1781 93.5744C79.0235 93.4058 78.8627 93.2428 78.6954 93.0881L81.0136 90.7439L73.0645 55.4417L65.1154 90.7439Z" fill="#FEFEFE"/>
<path fill-rule="evenodd" clip-rule="evenodd" d="M79.178 104.963L81.4802 107.291L116.457 99.2681L81.4802 91.2451L79.178 93.5733C79.0234 93.4047 78.8621 93.2428 78.6953 93.0881L81.2641 90.4905L81.4476 90.5326L119.534 99.2681L81.2641 108.047L78.6953 105.449C78.8621 105.294 79.0234 105.131 79.178 104.963Z" fill="#FEFEFE"/>
<path fill-rule="evenodd" clip-rule="evenodd" d="M65.1154 107.794L73.0645 143.096L81.0136 107.794L78.6954 105.45C78.8627 105.294 79.0235 105.132 79.1781 104.963L81.7618 107.577L73.0645 146.2L64.3672 107.577L66.9509 104.963C67.1056 105.132 67.2657 105.294 67.4337 105.45L65.1154 107.794Z" fill="#FEFEFE"/>
<path fill-rule="evenodd" clip-rule="evenodd" d="M81.3877 99.268H117.996L81.3728 90.8675L78.9414 93.3254C80.4516 94.8474 81.3877 96.9493 81.3877 99.268Z" fill="#FEFEFE"/>
<path fill-rule="evenodd" clip-rule="evenodd" d="M73.0641 53.8887V90.8675C70.7719 90.8675 68.693 91.8073 67.1861 93.3254L64.7559 90.8675L73.0641 53.8887Z" fill="#FEFEFE"/>
<path fill-rule="evenodd" clip-rule="evenodd" d="M73.0645 107.67V144.647L81.3882 107.686L78.9419 105.212C77.435 106.73 75.3561 107.67 73.0645 107.67Z" fill="#FEFEFE"/>
<path fill-rule="evenodd" clip-rule="evenodd" d="M536.807 75.5418C523.515 78.3689 511.215 91.9681 514.341 109.148C516.885 123.132 531.049 136.102 548.423 132.384C562.381 129.396 573.748 115.924 570.611 98.4247C568.156 84.7446 553.518 71.9872 536.807 75.5418ZM538.23 86.1485C515.391 91.6504 522.794 126.908 546.578 121.888C569.918 116.961 561.976 80.4282 538.23 86.1485Z" fill="black"/>
<path fill-rule="evenodd" clip-rule="evenodd" d="M368.461 75.7702C354.698 78.4732 342.432 92.0052 345.42 109.507C347.786 123.369 361.982 136.241 379.002 132.659C392.783 129.759 404.391 116.233 401.37 99.0374C398.967 85.3617 385.246 72.4734 368.461 75.7702ZM368.373 86.953C357.301 90.6318 353.248 100.659 356.243 110.051C358.761 117.948 368.062 125.344 378.865 121.682C401.981 113.848 389.741 79.8538 368.373 86.953Z" fill="black"/>
<path fill-rule="evenodd" clip-rule="evenodd" d="M385.097 149.127C371.054 151.854 358.165 165.385 361.049 183.232C363.405 197.817 377.67 210.654 395.232 207.833C409.746 205.501 421.947 191.735 419.43 173.766C417.345 158.883 402.526 145.743 385.097 149.127ZM386.648 160.128C377.752 162.184 369.864 170.604 372.034 182.102C373.775 191.334 382.932 198.671 393.993 196.566C417.612 192.071 410.739 154.559 386.648 160.128Z" fill="black"/>
<path fill-rule="evenodd" clip-rule="evenodd" d="M298.169 207.514L308.901 207.499L308.823 171.427L349.948 210.166L350.024 148.888L338.832 148.996L338.769 184.275L298.169 145.918V207.514Z" fill="black"/>
<path fill-rule="evenodd" clip-rule="evenodd" d="M429.759 207.523L440.012 207.497L440.046 188.614C445.6 187.51 445.048 189.936 449.937 196.521C451.924 199.199 456.314 205.149 457.35 207.491L469.88 207.5C469.198 205.879 467.715 204.251 466.501 202.572L455.761 187.638C460.623 184.632 464.213 182.365 466.178 176.569C468.291 170.336 467.025 163.061 463.914 158.429C457.149 148.354 444.502 148.6 429.815 149.411L429.759 207.523ZM440.14 177.538C448.37 177.835 456.904 178.293 456.717 169.048C456.516 159.033 445.55 160.38 440.276 160.614L440.14 177.538Z" fill="black"/>
<path fill-rule="evenodd" clip-rule="evenodd" d="M298.493 133.1L308.171 133.321L308.444 116.27C317.552 115.625 324.348 116.998 329.938 111.63C334.441 107.307 337.679 100.164 335.559 91.8056C331.695 76.5708 315.161 76.0391 298.451 77.6082L298.493 133.1ZM308.356 105.144C316.915 106.206 325.878 105.767 325.817 96.5872C325.756 87.6777 316.623 87.1554 308.389 88.1041L308.356 105.144Z" fill="black"/>
<path fill-rule="evenodd" clip-rule="evenodd" d="M530.08 207.453L565.529 207.664L565.496 196.539L541.333 196.594L541.225 184.04L564.675 183.756L564.731 172.706L541.284 172.642L541.283 160.567L565.579 160.514L565.618 149.461L530.403 149.453L530.08 207.453Z" fill="black"/>
<path fill-rule="evenodd" clip-rule="evenodd" d="M466.705 87.8024L480.746 87.9776L481 133.127L490.959 133.128L491.106 88.0137L505.48 88.0176L505.438 77.5289L466.668 77.5012L466.705 87.8024Z" fill="black"/>
<path fill-rule="evenodd" clip-rule="evenodd" d="M409.157 132.956L419.328 133.257L419.254 99.2459L458.227 135.957L458.299 77.8855L447.692 77.988L447.633 111.421L409.157 75.0705V132.956Z" fill="black"/>
<path fill-rule="evenodd" clip-rule="evenodd" d="M479.886 159.668L494.702 159.854L494.969 207.495L505.479 207.497L505.635 159.893L520.802 159.895L520.757 148.828L479.869 148.798L479.886 159.668Z" fill="black"/>
<path fill-rule="evenodd" clip-rule="evenodd" d="M550.233 105.566C550.539 108.045 550.544 111.303 550.034 113.536C549.827 112.882 549.753 112.464 549.507 111.823C549.104 110.775 548.594 109.927 547.9 109.106C547.493 108.624 547.244 108.422 546.792 108.062C544.835 106.503 543.286 106.808 540.589 106.417C537.194 105.925 532.605 104.417 531.984 100.582C531.873 99.8996 531.979 99.3047 531.899 98.728C531.908 99.7521 538.195 94.5058 546.741 103.766C539.976 95.3569 532.457 96.8562 532.803 96.4686C534.869 94.1421 538.62 92.5115 541.62 93.4967L543.598 94.3739C547.056 96.3666 549.577 100.239 550.233 105.566Z" fill="#365902"/>
<path d="M279.748 230.471C280.3 230.471 280.789 230.551 281.214 230.713C281.647 230.874 282.055 231.116 282.437 231.44L281.443 232.626C281.18 232.422 280.92 232.269 280.666 232.167C280.411 232.065 280.138 232.014 279.85 232.014C279.255 232.014 278.783 232.264 278.435 232.766C278.095 233.268 277.925 234.041 277.925 235.087C277.925 236.115 278.095 236.881 278.435 237.382C278.783 237.875 279.263 238.122 279.875 238.122C280.198 238.122 280.491 238.063 280.755 237.943C281.018 237.816 281.303 237.637 281.609 237.408L282.539 238.607C282.208 238.938 281.804 239.21 281.328 239.423C280.861 239.635 280.342 239.742 279.773 239.742C278.957 239.742 278.248 239.563 277.644 239.206C277.041 238.849 276.569 238.322 276.23 237.625C275.898 236.919 275.732 236.073 275.732 235.087C275.732 234.126 275.903 233.297 276.242 232.6C276.591 231.903 277.066 231.376 277.67 231.019C278.282 230.653 278.975 230.471 279.748 230.471ZM287.391 232.536C288.428 232.536 289.24 232.855 289.826 233.493C290.413 234.122 290.706 235.006 290.706 236.145C290.706 236.868 290.57 237.502 290.298 238.045C290.035 238.581 289.652 238.997 289.151 239.295C288.658 239.593 288.072 239.742 287.391 239.742C286.363 239.742 285.552 239.427 284.957 238.798C284.37 238.16 284.077 237.272 284.077 236.133C284.077 235.41 284.209 234.781 284.472 234.245C284.745 233.701 285.127 233.28 285.62 232.983C286.121 232.685 286.712 232.536 287.391 232.536ZM287.391 234.016C286.984 234.016 286.678 234.19 286.474 234.539C286.27 234.878 286.168 235.41 286.168 236.133C286.168 236.872 286.266 237.412 286.461 237.752C286.665 238.092 286.975 238.262 287.391 238.262C287.799 238.262 288.105 238.092 288.309 237.752C288.513 237.403 288.615 236.868 288.615 236.145C288.615 235.406 288.513 234.866 288.309 234.526C288.114 234.186 287.808 234.016 287.391 234.016ZM297.143 232.536C297.729 232.536 298.188 232.715 298.52 233.072C298.851 233.429 299.017 233.931 299.017 234.577V239.525H297.003V234.921C297.003 234.581 296.947 234.347 296.837 234.22C296.735 234.084 296.578 234.016 296.365 234.016C295.957 234.016 295.567 234.309 295.193 234.896V239.525H293.179V232.753H294.938L295.078 233.557C295.367 233.217 295.677 232.962 296.008 232.791C296.348 232.621 296.727 232.536 297.143 232.536ZM307.712 236.005C307.712 236.286 307.699 236.528 307.674 236.732H303.48C303.548 237.301 303.709 237.701 303.964 237.931C304.219 238.16 304.572 238.275 305.022 238.275C305.294 238.275 305.558 238.228 305.813 238.135C306.067 238.033 306.344 237.88 306.641 237.676L307.47 238.798C306.679 239.427 305.8 239.742 304.831 239.742C303.735 239.742 302.893 239.418 302.307 238.772C301.721 238.126 301.428 237.259 301.428 236.171C301.428 235.482 301.551 234.866 301.797 234.322C302.044 233.769 302.405 233.335 302.881 233.021C303.357 232.698 303.926 232.536 304.589 232.536C305.566 232.536 306.331 232.842 306.883 233.455C307.436 234.067 307.712 234.917 307.712 236.005ZM305.736 235.431C305.719 234.394 305.354 233.875 304.64 233.875C304.292 233.875 304.02 234.003 303.824 234.258C303.637 234.513 303.523 234.934 303.48 235.521H305.736V235.431ZM313.05 232.536C313.517 232.536 313.938 232.605 314.312 232.74C314.686 232.876 315.039 233.085 315.37 233.365L314.503 234.564C314.078 234.241 313.649 234.079 313.216 234.079C312.765 234.079 312.425 234.245 312.196 234.577C311.967 234.908 311.852 235.444 311.852 236.184C311.852 236.898 311.967 237.403 312.196 237.701C312.425 237.999 312.757 238.148 313.19 238.148C313.42 238.148 313.628 238.114 313.815 238.045C314.002 237.969 314.227 237.85 314.49 237.688L315.37 238.938C314.698 239.474 313.938 239.742 313.088 239.742C312.4 239.742 311.805 239.597 311.304 239.308C310.802 239.01 310.415 238.598 310.144 238.071C309.872 237.535 309.736 236.911 309.736 236.196C309.736 235.482 309.872 234.849 310.144 234.296C310.415 233.743 310.802 233.314 311.304 233.008C311.805 232.694 312.387 232.536 313.05 232.536ZM321.737 239.206C321.491 239.376 321.202 239.508 320.871 239.601C320.547 239.695 320.224 239.742 319.902 239.742C318.423 239.733 317.684 238.917 317.684 237.293V234.156H316.728V232.753H317.684V231.287L319.698 231.057V232.753H321.253L321.036 234.156H319.698V237.268C319.698 237.582 319.749 237.808 319.851 237.943C319.953 238.079 320.114 238.148 320.335 238.148C320.565 238.148 320.807 238.075 321.062 237.931L321.737 239.206ZM328.914 237.561C328.914 237.816 328.948 238.003 329.016 238.122C329.092 238.241 329.212 238.33 329.373 238.39L328.952 239.703C328.536 239.669 328.196 239.58 327.932 239.436C327.669 239.282 327.465 239.045 327.321 238.721C326.879 239.402 326.199 239.742 325.281 239.742C324.61 239.742 324.075 239.546 323.675 239.155C323.275 238.764 323.076 238.254 323.076 237.625C323.076 236.885 323.348 236.319 323.892 235.929C324.435 235.538 325.222 235.342 326.25 235.342H326.938V235.049C326.938 234.649 326.853 234.377 326.683 234.232C326.513 234.079 326.216 234.003 325.791 234.003C325.57 234.003 325.302 234.037 324.988 234.105C324.674 234.164 324.351 234.25 324.019 234.36L323.56 233.034C323.985 232.872 324.419 232.749 324.86 232.664C325.311 232.579 325.727 232.536 326.11 232.536C327.078 232.536 327.788 232.736 328.238 233.136C328.689 233.536 328.914 234.135 328.914 234.934V237.561ZM325.867 238.301C326.326 238.301 326.683 238.084 326.938 237.65V236.451H326.441C325.982 236.451 325.638 236.532 325.409 236.694C325.187 236.855 325.077 237.106 325.077 237.446C325.077 237.718 325.145 237.931 325.281 238.084C325.426 238.228 325.621 238.301 325.867 238.301ZM335.757 232.536C336.344 232.536 336.803 232.715 337.134 233.072C337.466 233.429 337.631 233.931 337.631 234.577V239.525H335.617V234.921C335.617 234.581 335.562 234.347 335.452 234.22C335.35 234.084 335.192 234.016 334.98 234.016C334.572 234.016 334.181 234.309 333.807 234.896V239.525H331.793V232.753H333.552L333.692 233.557C333.981 233.217 334.292 232.962 334.623 232.791C334.963 232.621 335.341 232.536 335.757 232.536ZM346.492 230.062V239.525H344.707L344.606 238.734C344.129 239.406 343.488 239.742 342.681 239.742C341.839 239.742 341.198 239.418 340.756 238.772C340.323 238.126 340.106 237.242 340.106 236.12C340.106 235.431 340.221 234.815 340.45 234.271C340.679 233.727 341.003 233.302 341.419 232.996C341.844 232.689 342.328 232.536 342.872 232.536C343.518 232.536 344.053 232.749 344.478 233.174V229.846L346.492 230.062ZM343.305 238.262C343.773 238.262 344.164 238.007 344.478 237.497V234.577C344.317 234.381 344.151 234.237 343.981 234.143C343.82 234.05 343.632 234.003 343.42 234.003C343.046 234.003 342.749 234.177 342.528 234.526C342.307 234.875 342.196 235.41 342.196 236.133C342.196 236.923 342.29 237.476 342.477 237.79C342.672 238.105 342.948 238.262 343.305 238.262ZM352.274 232.536C353.311 232.536 354.123 232.855 354.709 233.493C355.295 234.122 355.588 235.006 355.588 236.145C355.588 236.868 355.453 237.502 355.181 238.045C354.917 238.581 354.535 238.997 354.033 239.295C353.541 239.593 352.954 239.742 352.274 239.742C351.246 239.742 350.435 239.427 349.84 238.798C349.253 238.16 348.96 237.272 348.96 236.133C348.96 235.41 349.092 234.781 349.355 234.245C349.627 233.701 350.01 233.28 350.502 232.983C351.004 232.685 351.595 232.536 352.274 232.536ZM352.274 234.016C351.866 234.016 351.56 234.19 351.356 234.539C351.152 234.878 351.05 235.41 351.05 236.133C351.05 236.872 351.149 237.412 351.344 237.752C351.548 238.092 351.858 238.262 352.274 238.262C352.682 238.262 352.988 238.092 353.192 237.752C353.396 237.403 353.498 236.868 353.498 236.145C353.498 235.406 353.396 234.866 353.192 234.526C352.997 234.186 352.691 234.016 352.274 234.016ZM367.052 239.525L366.593 237.625H364.018L363.572 239.525H361.405L364.069 230.687H366.606L369.27 239.525H367.052ZM364.375 236.107H366.236L365.306 232.205L364.375 236.107ZM376.98 232.753L374.851 239.525H372.467L370.287 232.753H372.48L373.678 237.994L374.927 232.753H376.98ZM384.767 236.005C384.767 236.286 384.754 236.528 384.729 236.732H380.535C380.602 237.301 380.764 237.701 381.019 237.931C381.274 238.16 381.627 238.275 382.077 238.275C382.349 238.275 382.613 238.228 382.868 238.135C383.122 238.033 383.398 237.88 383.696 237.676L384.525 238.798C383.734 239.427 382.855 239.742 381.886 239.742C380.79 239.742 379.948 239.418 379.362 238.772C378.776 238.126 378.483 237.259 378.483 236.171C378.483 235.482 378.606 234.866 378.852 234.322C379.098 233.769 379.46 233.335 379.936 233.021C380.411 232.698 380.981 232.536 381.644 232.536C382.621 232.536 383.386 232.842 383.938 233.455C384.49 234.067 384.767 234.917 384.767 236.005ZM382.791 235.431C382.774 234.394 382.409 233.875 381.695 233.875C381.346 233.875 381.074 234.003 380.879 234.258C380.692 234.513 380.577 234.934 380.535 235.521H382.791V235.431ZM391.137 232.536C391.723 232.536 392.182 232.715 392.514 233.072C392.845 233.429 393.011 233.931 393.011 234.577V239.525H390.997V234.921C390.997 234.581 390.941 234.347 390.831 234.22C390.729 234.084 390.572 234.016 390.359 234.016C389.952 234.016 389.561 234.309 389.187 234.896V239.525H387.173V232.753H388.932L389.072 233.557C389.361 233.217 389.671 232.962 390.003 232.791C390.342 232.621 390.721 232.536 391.137 232.536ZM400.049 239.206C399.803 239.376 399.513 239.508 399.182 239.601C398.859 239.695 398.536 239.742 398.213 239.742C396.735 239.733 395.995 238.917 395.995 237.293V234.156H395.039V232.753H395.995V231.287L398.009 231.057V232.753H399.564L399.348 234.156H398.009V237.268C398.009 237.582 398.06 237.808 398.162 237.943C398.264 238.079 398.426 238.148 398.647 238.148C398.876 238.148 399.118 238.075 399.373 237.931L400.049 239.206ZM407.706 239.525H405.96L405.871 238.67C405.378 239.385 404.694 239.742 403.819 239.742C403.198 239.742 402.727 239.555 402.404 239.18C402.089 238.806 401.932 238.283 401.932 237.612V232.753H403.946V237.357C403.946 237.688 403.997 237.922 404.099 238.058C404.21 238.186 404.376 238.25 404.596 238.25C405.021 238.25 405.386 237.986 405.692 237.459V232.753H407.706V239.525ZM414.237 232.562C414.483 232.562 414.708 232.592 414.912 232.651L414.594 234.602C414.339 234.543 414.135 234.513 413.982 234.513C413.582 234.513 413.276 234.653 413.064 234.934C412.86 235.206 412.698 235.618 412.58 236.171V239.525H410.566V232.753H412.325L412.49 234.067C412.643 233.599 412.873 233.233 413.179 232.97C413.493 232.698 413.845 232.562 414.237 232.562ZM421.887 237.561C421.887 237.816 421.922 238.003 421.989 238.122C422.066 238.241 422.185 238.33 422.346 238.39L421.925 239.703C421.509 239.669 421.169 239.58 420.906 239.436C420.642 239.282 420.438 239.045 420.294 238.721C419.852 239.402 419.172 239.742 418.254 239.742C417.583 239.742 417.048 239.546 416.648 239.155C416.249 238.764 416.049 238.254 416.049 237.625C416.049 236.885 416.321 236.319 416.865 235.929C417.409 235.538 418.195 235.342 419.223 235.342H419.911V235.049C419.911 234.649 419.827 234.377 419.656 234.232C419.487 234.079 419.189 234.003 418.764 234.003C418.544 234.003 418.276 234.037 417.961 234.105C417.647 234.164 417.324 234.25 416.992 234.36L416.533 233.034C416.959 232.872 417.392 232.749 417.834 232.664C418.284 232.579 418.7 232.536 419.083 232.536C420.052 232.536 420.762 232.736 421.212 233.136C421.662 233.536 421.887 234.135 421.887 234.934V237.561ZM418.841 238.301C419.3 238.301 419.656 238.084 419.911 237.65V236.451H419.414C418.955 236.451 418.611 236.532 418.382 236.694C418.161 236.855 418.05 237.106 418.05 237.446C418.05 237.718 418.119 237.931 418.254 238.084C418.399 238.228 418.595 238.301 418.841 238.301ZM427.025 232.536C427.51 232.536 427.965 232.608 428.389 232.753C428.814 232.898 429.188 233.102 429.511 233.365L428.772 234.5C428.22 234.152 427.663 233.977 427.102 233.977C426.839 233.977 426.635 234.024 426.49 234.118C426.354 234.203 426.286 234.326 426.286 234.488C426.286 234.615 426.316 234.722 426.375 234.806C426.443 234.883 426.575 234.964 426.77 235.049C426.966 235.133 427.268 235.236 427.675 235.355C428.381 235.559 428.904 235.827 429.243 236.158C429.592 236.481 429.766 236.932 429.766 237.51C429.766 237.969 429.635 238.369 429.371 238.709C429.108 239.04 428.746 239.295 428.287 239.474C427.828 239.652 427.318 239.742 426.758 239.742C426.188 239.742 425.658 239.652 425.164 239.474C424.68 239.295 424.268 239.049 423.928 238.734L424.909 237.637C425.479 238.079 426.078 238.301 426.707 238.301C427.013 238.301 427.251 238.245 427.42 238.135C427.599 238.024 427.688 237.867 427.688 237.663C427.688 237.502 427.654 237.374 427.586 237.28C427.519 237.187 427.387 237.102 427.191 237.025C426.996 236.94 426.686 236.838 426.26 236.719C425.589 236.524 425.088 236.252 424.756 235.903C424.425 235.554 424.259 235.121 424.259 234.602C424.259 234.211 424.37 233.863 424.591 233.557C424.82 233.242 425.143 232.996 425.559 232.817C425.984 232.63 426.473 232.536 427.025 232.536ZM432.818 237.433C433.141 237.433 433.413 237.544 433.634 237.765C433.854 237.986 433.965 238.258 433.965 238.581C433.965 238.768 433.935 238.955 433.876 239.142C433.816 239.329 433.71 239.593 433.557 239.933L432.754 241.782H431.62L432.168 239.538C432.006 239.427 431.879 239.291 431.785 239.129C431.7 238.959 431.658 238.777 431.658 238.581C431.658 238.258 431.768 237.986 431.989 237.765C432.21 237.544 432.487 237.433 432.818 237.433ZM444.577 230.471C445.716 230.471 446.698 230.832 447.522 231.554L446.464 232.664C446.15 232.426 445.857 232.256 445.584 232.154C445.321 232.044 445.015 231.988 444.667 231.988C444.012 231.988 443.489 232.248 443.099 232.766C442.708 233.276 442.512 234.054 442.512 235.1C442.512 236.23 442.661 237.034 442.958 237.51C443.256 237.977 443.719 238.211 444.348 238.211C444.79 238.211 445.189 238.114 445.546 237.918V235.916H444.399L444.195 234.437H447.573V238.811C447.114 239.108 446.609 239.338 446.056 239.499C445.503 239.661 444.951 239.742 444.399 239.742C443.056 239.742 442.045 239.351 441.365 238.568C440.685 237.778 440.345 236.622 440.345 235.1C440.345 234.13 440.528 233.297 440.893 232.6C441.268 231.903 441.773 231.376 442.41 231.019C443.056 230.653 443.779 230.471 444.577 230.471ZM455.916 239.525H454.17L454.081 238.67C453.588 239.385 452.904 239.742 452.028 239.742C451.408 239.742 450.936 239.555 450.613 239.18C450.299 238.806 450.142 238.283 450.142 237.612V232.753H452.156V237.357C452.156 237.688 452.207 237.922 452.309 238.058C452.42 238.186 452.585 238.25 452.806 238.25C453.231 238.25 453.596 237.986 453.902 237.459V232.753H455.916V239.525ZM460.789 232.753V239.525H458.775V232.753H460.789ZM459.769 229.183C460.118 229.183 460.402 229.293 460.623 229.514C460.853 229.726 460.967 229.999 460.967 230.33C460.967 230.662 460.853 230.938 460.623 231.159C460.402 231.372 460.118 231.478 459.769 231.478C459.421 231.478 459.136 231.372 458.915 231.159C458.694 230.938 458.584 230.662 458.584 230.33C458.584 229.999 458.694 229.726 458.915 229.514C459.136 229.293 459.421 229.183 459.769 229.183ZM469.026 237.561C469.026 237.816 469.06 238.003 469.128 238.122C469.205 238.241 469.324 238.33 469.485 238.39L469.064 239.703C468.648 239.669 468.308 239.58 468.045 239.436C467.781 239.282 467.577 239.045 467.433 238.721C466.991 239.402 466.311 239.742 465.393 239.742C464.722 239.742 464.187 239.546 463.787 239.155C463.388 238.764 463.188 238.254 463.188 237.625C463.188 236.885 463.46 236.319 464.004 235.929C464.548 235.538 465.334 235.342 466.362 235.342H467.05V235.049C467.05 234.649 466.965 234.377 466.795 234.232C466.626 234.079 466.328 234.003 465.903 234.003C465.682 234.003 465.415 234.037 465.1 234.105C464.786 234.164 464.463 234.25 464.131 234.36L463.672 233.034C464.097 232.872 464.531 232.749 464.973 232.664C465.423 232.579 465.839 232.536 466.222 232.536C467.191 232.536 467.9 232.736 468.351 233.136C468.801 233.536 469.026 234.135 469.026 234.934V237.561ZM465.98 238.301C466.438 238.301 466.795 238.084 467.05 237.65V236.451H466.553C466.094 236.451 465.75 236.532 465.521 236.694C465.3 236.855 465.189 237.106 465.189 237.446C465.189 237.718 465.257 237.931 465.393 238.084C465.538 238.228 465.733 238.301 465.98 238.301ZM475.87 232.536C476.456 232.536 476.915 232.715 477.246 233.072C477.578 233.429 477.743 233.931 477.743 234.577V239.525H475.729V234.921C475.729 234.581 475.674 234.347 475.564 234.22C475.462 234.084 475.304 234.016 475.092 234.016C474.684 234.016 474.293 234.309 473.919 234.896V239.525H471.905V232.753H473.664L473.805 233.557C474.093 233.217 474.404 232.962 474.735 232.791C475.075 232.621 475.453 232.536 475.87 232.536ZM486.604 230.062V239.525H484.82L484.718 238.734C484.242 239.406 483.6 239.742 482.793 239.742C481.952 239.742 481.31 239.418 480.868 238.772C480.435 238.126 480.218 237.242 480.218 236.12C480.218 235.431 480.333 234.815 480.562 234.271C480.792 233.727 481.115 233.302 481.531 232.996C481.956 232.689 482.44 232.536 482.984 232.536C483.63 232.536 484.166 232.749 484.59 233.174V229.846L486.604 230.062ZM483.417 238.262C483.885 238.262 484.276 238.007 484.59 237.497V234.577C484.429 234.381 484.263 234.237 484.093 234.143C483.932 234.05 483.745 234.003 483.532 234.003C483.159 234.003 482.861 234.177 482.64 234.526C482.419 234.875 482.308 235.41 482.308 236.133C482.308 236.923 482.402 237.476 482.589 237.79C482.785 238.105 483.061 238.262 483.417 238.262ZM492.387 232.536C493.423 232.536 494.235 232.855 494.822 233.493C495.408 234.122 495.701 235.006 495.701 236.145C495.701 236.868 495.565 237.502 495.293 238.045C495.029 238.581 494.647 238.997 494.146 239.295C493.653 239.593 493.066 239.742 492.387 239.742C491.358 239.742 490.547 239.427 489.952 238.798C489.366 238.16 489.073 237.272 489.073 236.133C489.073 235.41 489.204 234.781 489.468 234.245C489.739 233.701 490.122 233.28 490.615 232.983C491.116 232.685 491.707 232.536 492.387 232.536ZM492.387 234.016C491.979 234.016 491.673 234.19 491.469 234.539C491.265 234.878 491.163 235.41 491.163 236.133C491.163 236.872 491.261 237.412 491.456 237.752C491.66 238.092 491.97 238.262 492.387 238.262C492.795 238.262 493.101 238.092 493.305 237.752C493.509 237.403 493.611 236.868 493.611 236.145C493.611 235.406 493.509 234.866 493.305 234.526C493.109 234.186 492.803 234.016 492.387 234.016ZM507.929 230.687L507.712 232.179H504.602V234.296H507.317V235.763H504.602V238.02H507.929V239.525H502.511V230.687H507.929ZM514.142 235.903L516.321 239.525H514.04L512.867 236.987L511.72 239.525H509.527L511.707 235.967L509.744 232.753H512L512.943 234.921L513.848 232.753H515.99L514.142 235.903ZM522.079 232.536C522.929 232.536 523.562 232.851 523.978 233.48C524.395 234.109 524.603 234.989 524.603 236.12C524.603 236.817 524.493 237.442 524.272 237.994C524.059 238.538 523.749 238.968 523.341 239.282C522.933 239.589 522.457 239.742 521.913 239.742C521.233 239.742 520.685 239.508 520.269 239.04V242.139L518.255 242.356V232.753H520.027L520.129 233.506C520.392 233.174 520.694 232.932 521.034 232.779C521.374 232.617 521.722 232.536 522.079 232.536ZM521.301 238.262C522.109 238.262 522.512 237.556 522.512 236.145C522.512 235.346 522.423 234.794 522.245 234.488C522.066 234.173 521.799 234.016 521.442 234.016C521.212 234.016 520.996 234.084 520.792 234.22C520.596 234.356 520.422 234.551 520.269 234.806V237.663C520.541 238.063 520.885 238.262 521.301 238.262ZM533.038 236.005C533.038 236.286 533.025 236.528 532.999 236.732H528.806C528.873 237.301 529.035 237.701 529.29 237.931C529.545 238.16 529.897 238.275 530.348 238.275C530.62 238.275 530.883 238.228 531.138 238.135C531.393 238.033 531.669 237.88 531.967 237.676L532.795 238.798C532.005 239.427 531.126 239.742 530.157 239.742C529.061 239.742 528.219 239.418 527.633 238.772C527.047 238.126 526.753 237.259 526.753 236.171C526.753 235.482 526.876 234.866 527.123 234.322C527.369 233.769 527.73 233.335 528.206 233.021C528.682 232.698 529.252 232.536 529.915 232.536C530.892 232.536 531.656 232.842 532.209 233.455C532.761 234.067 533.038 234.917 533.038 236.005ZM531.062 235.431C531.045 234.394 530.679 233.875 529.966 233.875C529.617 233.875 529.345 234.003 529.15 234.258C528.962 234.513 528.848 234.934 528.806 235.521H531.062V235.431ZM539.115 232.562C539.361 232.562 539.586 232.592 539.79 232.651L539.471 234.602C539.217 234.543 539.013 234.513 538.86 234.513C538.461 234.513 538.155 234.653 537.942 234.934C537.738 235.206 537.577 235.618 537.457 236.171V239.525H535.443V232.753H537.203L537.368 234.067C537.521 233.599 537.751 233.233 538.057 232.97C538.371 232.698 538.724 232.562 539.115 232.562ZM543.849 232.753V239.525H541.835V232.753H543.849ZM542.829 229.183C543.177 229.183 543.462 229.293 543.683 229.514C543.912 229.726 544.027 229.999 544.027 230.33C544.027 230.662 543.912 230.938 543.683 231.159C543.462 231.372 543.177 231.478 542.829 231.478C542.48 231.478 542.195 231.372 541.975 231.159C541.754 230.938 541.643 230.662 541.643 230.33C541.643 229.999 541.754 229.726 541.975 229.514C542.195 229.293 542.48 229.183 542.829 229.183ZM552.609 236.005C552.609 236.286 552.596 236.528 552.57 236.732H548.377C548.445 237.301 548.606 237.701 548.861 237.931C549.116 238.16 549.468 238.275 549.919 238.275C550.191 238.275 550.454 238.228 550.709 238.135C550.964 238.033 551.24 237.88 551.538 237.676L552.366 238.798C551.576 239.427 550.697 239.742 549.728 239.742C548.632 239.742 547.79 239.418 547.204 238.772C546.618 238.126 546.324 237.259 546.324 236.171C546.324 235.482 546.447 234.866 546.694 234.322C546.941 233.769 547.301 233.335 547.778 233.021C548.254 232.698 548.823 232.536 549.486 232.536C550.463 232.536 551.228 232.842 551.78 233.455C552.333 234.067 552.609 234.917 552.609 236.005ZM550.633 235.431C550.616 234.394 550.25 233.875 549.537 233.875C549.188 233.875 548.916 234.003 548.721 234.258C548.534 234.513 548.419 234.934 548.377 235.521H550.633V235.431ZM547.816 231.618L547.102 230.789L548.899 229.042H550.136L551.933 230.789L551.219 231.618L549.524 230.445L547.816 231.618ZM558.978 232.536C559.565 232.536 560.025 232.715 560.358 233.072C560.685 233.429 560.851 233.931 560.851 234.577V239.525H558.839V234.921C558.839 234.581 558.784 234.347 558.673 234.22C558.573 234.084 558.412 234.016 558.202 234.016C557.792 234.016 557.404 234.309 557.027 234.896V239.525H555.015V232.753H556.772L556.916 233.557C557.204 233.217 557.515 232.962 557.847 232.791C558.185 232.621 558.562 232.536 558.978 232.536ZM566.576 232.536C567.047 232.536 567.468 232.605 567.84 232.74C568.216 232.876 568.566 233.085 568.898 233.365L568.034 234.564C567.607 234.241 567.175 234.079 566.742 234.079C566.293 234.079 565.955 234.245 565.723 234.577C565.495 234.908 565.379 235.444 565.379 236.184C565.379 236.898 565.495 237.403 565.723 237.701C565.955 237.999 566.282 238.148 566.72 238.148C566.947 238.148 567.158 238.114 567.341 238.045C567.529 237.969 567.757 237.85 568.017 237.688L568.898 238.938C568.228 239.474 567.468 239.742 566.615 239.742C565.928 239.742 565.335 239.597 564.83 239.308C564.331 239.01 563.943 238.598 563.672 238.071C563.4 237.535 563.262 236.911 563.262 236.196C563.262 235.482 563.4 234.849 563.672 234.296C563.943 233.743 564.331 233.314 564.83 233.008C565.335 232.694 565.916 232.536 566.576 232.536ZM573.033 232.753V239.525H571.021V232.753H573.033ZM572.013 229.183C572.362 229.183 572.65 229.293 572.866 229.514C573.099 229.726 573.216 229.999 573.216 230.33C573.216 230.662 573.099 230.938 572.866 231.159C572.65 231.372 572.362 231.478 572.013 231.478C571.664 231.478 571.381 231.372 571.159 231.159C570.938 230.938 570.827 230.662 570.827 230.33C570.827 229.999 570.938 229.726 571.159 229.514C571.381 229.293 571.664 229.183 572.013 229.183ZM581.274 237.561C581.274 237.816 581.307 238.003 581.374 238.122C581.451 238.241 581.568 238.33 581.728 238.39L581.313 239.703C580.891 239.669 580.553 239.58 580.293 239.436C580.027 239.282 579.822 239.045 579.678 238.721C579.234 239.402 578.558 239.742 577.638 239.742C576.968 239.742 576.43 239.546 576.031 239.155C575.632 238.764 575.432 238.254 575.432 237.625C575.432 236.885 575.704 236.319 576.247 235.929C576.796 235.538 577.577 235.342 578.608 235.342H579.295V235.049C579.295 234.649 579.212 234.377 579.04 234.232C578.874 234.079 578.575 234.003 578.148 234.003C577.926 234.003 577.66 234.037 577.344 234.105C577.034 234.164 576.707 234.25 576.375 234.36L575.92 233.034C576.341 232.872 576.779 232.749 577.217 232.664C577.671 232.579 578.087 232.536 578.47 232.536C579.434 232.536 580.149 232.736 580.598 233.136C581.047 233.536 581.274 234.135 581.274 234.934V237.561ZM578.226 238.301C578.686 238.301 579.04 238.084 579.295 237.65V236.451H578.797C578.342 236.451 577.998 236.532 577.766 236.694C577.544 236.855 577.433 237.106 577.433 237.446C577.433 237.718 577.505 237.931 577.638 238.084C577.782 238.228 577.982 238.301 578.226 238.301ZM586.411 232.536C586.894 232.536 587.348 232.608 587.775 232.753C588.202 232.898 588.573 233.102 588.894 233.365L588.157 234.5C587.603 234.152 587.049 233.977 586.489 233.977C586.223 233.977 586.018 234.024 585.874 234.118C585.741 234.203 585.669 234.326 585.669 234.488C585.669 234.615 585.702 234.722 585.757 234.806C585.83 234.883 585.963 234.964 586.157 235.049C586.35 235.133 586.65 235.236 587.06 235.355C587.764 235.559 588.29 235.827 588.628 236.158C588.977 236.481 589.149 236.932 589.149 237.51C589.149 237.969 589.022 238.369 588.756 238.709C588.49 239.04 588.13 239.295 587.67 239.474C587.215 239.652 586.705 239.742 586.14 239.742C585.575 239.742 585.043 239.652 584.549 239.474C584.067 239.295 583.651 239.049 583.313 238.734L584.294 237.637C584.865 238.079 585.464 238.301 586.09 238.301C586.395 238.301 586.633 238.245 586.805 238.135C586.982 238.024 587.071 237.867 587.071 237.663C587.071 237.502 587.038 237.374 586.971 237.28C586.905 237.187 586.772 237.102 586.578 237.025C586.378 236.94 586.068 236.838 585.647 236.719C584.976 236.524 584.472 236.252 584.139 235.903C583.812 235.554 583.646 235.121 583.646 234.602C583.646 234.211 583.757 233.863 583.973 233.557C584.206 233.242 584.527 232.996 584.943 232.817C585.369 232.63 585.857 232.536 586.411 232.536ZM592.203 237.433C592.519 237.433 592.785 237.548 593.007 237.778C593.234 237.999 593.35 238.267 593.35 238.581C593.35 238.904 593.234 239.18 593.007 239.41C592.785 239.631 592.519 239.742 592.203 239.742C591.882 239.742 591.604 239.631 591.372 239.41C591.156 239.18 591.045 238.904 591.045 238.581C591.045 238.267 591.156 237.999 591.372 237.778C591.604 237.548 591.882 237.433 592.203 237.433Z" fill="black"/>
<defs>
<linearGradient id="paint0_linear_1_28084" x1="169.837" y1="143.062" x2="10.2762" y2="23.3668" gradientUnits="userSpaceOnUse">
<stop stop-color="#FFBF00"/>
<stop offset="0.478431" stop-color="#F9961E"/>
<stop offset="1" stop-color="#F26D3D"/>
</linearGradient>
</defs>
</svg>
