<svg width="141" height="66" viewBox="0 0 141 66" fill="none" xmlns="http://www.w3.org/2000/svg">
<path fill-rule="evenodd" clip-rule="evenodd" d="M31.8075 0C43.6093 0 53.9099 6.54166 59.3995 16.2564C43.969 34.276 59.3995 16.2564 43.969 34.276C34.0449 23.0539 43.969 34.276 34.0449 23.0539C7.38603 53.1138 34.0449 23.054 7.38603 53.1138C2.77506 47.4966 0 40.264 0 32.3719C0 14.4932 14.2405 0 31.8075 0Z" fill="url(#paint0_linear_1_10424)"/>
<path d="M53.8866 32.4118V32.6947L51.6802 32.6904C51.7104 32.172 51.6288 31.8491 51.7301 31.8187L51.8362 31.8626C51.8362 31.754 51.9447 31.6267 51.7176 31.0726C51.1745 30.2276 51.2367 28.9497 51.3358 28.4164L49.9911 27.5435C49.9346 28.3201 49.591 29.5755 49.2941 29.7929C49.1244 29.9172 49.0631 30.963 49.0537 31.4707C49.0537 31.9883 49.0537 32.5061 49.0537 33.0239C49.3862 32.7711 48.9358 33.4744 50.024 33.4744C50.3091 33.6297 50.024 33.8995 50.024 34.112C49.413 34.1169 47.8236 35.2627 48.0411 34.1424C48.1735 33.6197 47.9288 33.3125 48.0573 33.3205H48.2411C48.227 33.129 48.1714 32.3498 48.1261 31.0824C48.0808 29.8149 48.39 28.8248 48.5503 28.4883L48.478 26.8445C48.4875 26.7461 48.5008 26.5369 48.478 26.4873C48.4555 26.4375 48.3933 26.4665 48.365 26.4873L47.9408 27.2794H47.8558V27.0775H47.9408V26.363H47.7003V26.8755C47.6437 26.8808 47.5108 26.8973 47.4316 26.9222C47.3524 26.9471 47.2101 27.1914 47.1488 27.3106L46.9933 27.2794C46.9885 27.1863 46.982 26.9843 46.9933 26.9222C47.0045 26.86 47.243 26.7202 47.3609 26.6581C47.3563 26.6218 47.3495 26.481 47.3609 26.2077C47.3723 25.9342 47.2902 25.8866 47.2478 25.897C47.2054 25.9023 47.1149 25.8752 47.0922 25.7262C47.0696 25.577 47.1866 25.4776 47.2478 25.4466V24.62C47.232 24.6233 47.1891 24.622 47.0922 24.6076C46.9226 24.5829 46.8047 24.4937 46.767 24.4524L45.9326 22.5729C45.9326 22.4849 45.9638 22.2839 46.0883 22.1845C46.2127 22.0851 46.159 21.9361 46.1164 21.8739C46.0128 21.7702 45.7997 21.4669 45.7772 21.0816C45.7544 20.6966 45.9563 20.4448 46.06 20.3672H46.5408C46.6633 20.1911 46.9735 19.839 47.2337 19.839C47.3919 19.5284 47.9313 19.4092 48.1812 19.3886C48.1717 19.3006 48.1952 19.1183 48.365 19.0934C48.5771 19.0624 48.6054 19.2643 48.6054 19.342C48.6054 19.4196 48.8175 19.3575 49.0296 19.171C49.4594 18.8232 49.3688 18.4877 49.27 18.3634C49.2039 18.2858 49.072 18.0309 49.072 17.6333C49.072 17.1362 49.2981 16.3751 50.2174 16.3596C51.1366 16.344 51.0799 17.0272 51.1506 17.5709C51.2762 17.7417 51.3336 17.8889 51.3752 17.9593C51.3935 17.9903 51.3415 18.0991 51.3329 18.0991C51.3215 18.0991 51.2685 18.1303 51.2073 18.1303C51.2026 18.1201 51.1574 18.1397 51.2073 18.2236C51.2905 18.363 51.1839 18.4063 51.1604 18.4269L50.9952 18.441C51.0264 18.4332 51.1735 18.4173 51.2055 18.4252C51.2217 18.4254 51.219 18.4877 51.2094 18.5044C51.1784 18.5573 51.099 18.5718 51.1082 18.7051C51.1304 19.0579 50.9961 19.05 50.9104 19.0624C50.6463 19.2539 50.1637 19.6774 50.3448 19.839C50.7179 20.1248 50.7547 21.4183 50.7264 22.0292C50.6983 22.6815 50.6417 24.4214 50.8538 24.6698C50.9387 24.8717 51.278 25.2756 51.6033 25.5552C51.8634 25.7789 51.7494 26.0524 51.6598 26.1611L51.4901 26.4097C51.7823 26.741 52.1815 26.9843 52.2832 27.0961C52.3849 27.2078 52.4011 27.4637 52.3963 27.5776L52.4071 31.5689C52.6091 31.3934 52.3945 31.9832 53.3647 32.1283C53.6421 32.1283 53.875 32.3673 53.8866 32.4118Z" fill="black"/>
<path d="M51.1349 17.0937L48.623 17.9609L48.6489 18.0384L51.1607 17.1712L51.1349 17.0937Z" fill="black" stroke="#201E1E" stroke-width="0.0651975" stroke-miterlimit="22.9256"/>
<path fill-rule="evenodd" clip-rule="evenodd" d="M57.4635 52.0741C64.4972 42.4291 65.4751 30.1122 61.0818 19.8359C43.983 39.4399 61.0818 19.8359 43.983 39.44C35.1606 29.0437 43.264 38.5916 34.7015 28.6564V36.1337L32.8596 34.7352V28.7621L9.58594 55.8332C10.6297 56.878 11.7567 57.8619 12.9655 58.7752C27.0716 69.4304 46.994 66.4303 57.4635 52.0741ZM28.387 40.6855L29.9382 41.7062L23.5231 49.2027C22.0536 50.8003 22.147 50.7779 24.0313 52.9434C25.4328 54.5561 25.4328 54.5561 25.4328 54.5561L24.144 55.7622L22.9326 54.37C19.8012 50.7711 19.7921 50.7607 22.0593 48.0468C24.175 45.814 28.387 40.6855 28.387 40.6855Z" fill="#365902"/>
<path fill-rule="evenodd" clip-rule="evenodd" d="M18.4817 9.96875L18.4632 10.0497C18.4428 10.0523 18.4131 10.0562 18.374 10.0615C18.3351 10.0672 18.2969 10.0819 18.2598 10.1058C18.2285 10.1258 18.2018 10.1601 18.1794 10.2093C18.1573 10.2581 18.1351 10.3295 18.1133 10.424L17.8562 11.5561H17.6722L17.0033 10.2921L16.8261 11.0814C16.8165 11.1228 16.8093 11.1616 16.8041 11.1981C16.7989 11.2343 16.7964 11.2634 16.7964 11.2847C16.7964 11.3151 16.7993 11.3386 16.8053 11.3553C16.8111 11.3722 16.8195 11.3861 16.8303 11.3971C16.8471 11.4141 16.8764 11.4292 16.9184 11.4416C16.9602 11.4541 16.9914 11.4624 17.0118 11.4663L16.9931 11.5473H16.3262L16.3449 11.4663C16.3645 11.4631 16.3955 11.4581 16.4383 11.4506C16.4809 11.4432 16.5175 11.4298 16.5481 11.4106C16.5801 11.39 16.607 11.3557 16.629 11.3087C16.6508 11.2616 16.6724 11.1898 16.6935 11.0936L16.8623 10.3505C16.866 10.3334 16.869 10.3174 16.8716 10.3021C16.8742 10.2866 16.8754 10.2726 16.8754 10.2603C16.8754 10.2381 16.8729 10.2168 16.8677 10.1964C16.8627 10.1758 16.8533 10.1572 16.8392 10.1401C16.8188 10.1146 16.7937 10.0954 16.7637 10.0815C16.7338 10.068 16.6987 10.0574 16.6585 10.0497L16.6781 9.96875H17.2513L17.8363 11.0818L17.9818 10.435C17.992 10.3875 17.9995 10.3487 18.0041 10.3187C18.0089 10.2887 18.0112 10.2607 18.0112 10.2346C18.0112 10.2056 18.0082 10.1821 18.002 10.164C17.9958 10.1458 17.987 10.1307 17.9752 10.1189C17.9592 10.1027 17.9311 10.088 17.8906 10.0752C17.8504 10.0619 17.8192 10.0536 17.7974 10.0497L17.8159 9.96875H18.4817Z" fill="#FEFEFE"/>
<path fill-rule="evenodd" clip-rule="evenodd" d="M16.7615 36.2515C16.6754 36.2515 16.5889 36.2403 16.5019 36.2186C16.4148 36.1972 16.3385 36.1676 16.2728 36.1301L16.1788 36.208H16.0859L16.2019 35.6372H16.2959C16.3046 35.6931 16.3206 35.7509 16.3439 35.8105C16.3672 35.8705 16.3974 35.9239 16.4346 35.9707C16.471 36.0188 16.5173 36.0592 16.5735 36.0909C16.6296 36.1231 16.6937 36.1392 16.7658 36.1392C16.8715 36.1392 16.9561 36.1127 17.0195 36.0601C17.0829 36.0082 17.1145 35.939 17.1145 35.8537C17.1145 35.7988 17.0966 35.7504 17.0603 35.7088C17.0243 35.6672 16.9661 35.6316 16.886 35.6019C16.8351 35.5833 16.7856 35.5655 16.738 35.548C16.6903 35.5306 16.6448 35.5123 16.6018 35.4937C16.5167 35.4574 16.4525 35.4057 16.4096 35.3382C16.3664 35.2712 16.345 35.1998 16.345 35.1239C16.345 35.0543 16.3606 34.9873 16.392 34.923C16.4233 34.8589 16.4685 34.8014 16.5275 34.7508C16.5851 34.7012 16.6564 34.6612 16.7413 34.6312C16.8261 34.601 16.9193 34.5859 17.0205 34.5859C17.105 34.5859 17.1888 34.5985 17.2719 34.6234C17.3551 34.6487 17.4162 34.673 17.4556 34.6961L17.5375 34.6295H17.6327L17.519 35.1679H17.425C17.4154 35.1047 17.4017 35.0451 17.384 34.9894C17.3661 34.9338 17.3416 34.8836 17.3102 34.8389C17.2796 34.7957 17.2414 34.7614 17.196 34.7357C17.1505 34.71 17.0956 34.6973 17.0314 34.6973C16.9426 34.6973 16.8685 34.7226 16.8089 34.773C16.7496 34.8236 16.7199 34.8871 16.7199 34.9638C16.7199 35.0173 16.7378 35.0639 16.7735 35.1039C16.8091 35.1441 16.8658 35.1792 16.943 35.2088C16.9881 35.2259 17.0355 35.2433 17.085 35.2616C17.1345 35.2798 17.1819 35.2986 17.2272 35.3178C17.3115 35.3535 17.3782 35.4022 17.4271 35.4631C17.4759 35.5245 17.5003 35.5972 17.5003 35.6812C17.5003 35.7606 17.4824 35.8351 17.4468 35.9047C17.4111 35.9747 17.3612 36.0349 17.2971 36.0852C17.2293 36.1388 17.1503 36.1797 17.0598 36.2084C16.9696 36.2372 16.87 36.2515 16.7615 36.2515Z" fill="#FEFEFE"/>
<path fill-rule="evenodd" clip-rule="evenodd" d="M29.5086 22.2969L29.4179 22.6996H29.336C29.3258 22.6292 29.3011 22.5647 29.262 22.5059C29.2229 22.4475 29.1819 22.4131 29.1389 22.4035C29.1185 22.3984 29.0888 22.3953 29.0503 22.3943C29.0116 22.3927 28.9794 22.3924 28.954 22.3924H28.7394L28.5993 23.0088H28.7482C28.8029 23.0088 28.8459 23.0027 28.8769 22.9904C28.9079 22.9782 28.937 22.9609 28.964 22.9386C28.9844 22.9213 29.0083 22.8911 29.0356 22.8468C29.0632 22.8027 29.0827 22.7653 29.0942 22.7337H29.1763L29.0266 23.3927H28.9445V23.3513C28.9445 23.3182 28.9411 23.2839 28.9341 23.2486C28.9272 23.2133 28.9191 23.1886 28.9095 23.1743C28.8906 23.1462 28.8653 23.1276 28.8339 23.1184C28.8025 23.109 28.7667 23.1045 28.7266 23.1045H28.5775L28.4777 23.5438C28.4727 23.566 28.4679 23.5903 28.4635 23.616C28.4593 23.6419 28.4571 23.6605 28.4571 23.6717C28.4571 23.7193 28.4724 23.7489 28.503 23.7615C28.5336 23.7736 28.5901 23.7797 28.6723 23.7797C28.7773 23.7797 28.8538 23.775 28.902 23.7658C28.9501 23.7564 28.9861 23.7423 29.0102 23.7228C29.0539 23.6858 29.1063 23.6291 29.1676 23.5529C29.2289 23.4764 29.2703 23.4197 29.2923 23.3837H29.372L29.231 23.8752H27.7871L27.8056 23.7938C27.8239 23.7932 27.8511 23.7911 27.8871 23.7868C27.9231 23.7828 27.9499 23.7779 27.9674 23.7719C27.9959 23.7623 28.0175 23.7475 28.0324 23.7272C28.0474 23.7072 28.0578 23.6844 28.0636 23.6583L28.3142 22.5547C28.3178 22.5394 28.3204 22.5263 28.3219 22.5159C28.3234 22.5055 28.324 22.4976 28.324 22.4927C28.324 22.4614 28.3086 22.4371 28.2776 22.4196C28.2468 22.4024 28.1961 22.3884 28.1262 22.3779L28.1449 22.2969H29.5086Z" fill="#FEFEFE"/>
<path fill-rule="evenodd" clip-rule="evenodd" d="M6.13239 22.2969L6.11274 22.3779C6.08866 22.3804 6.06477 22.3857 6.04069 22.3945C6.01661 22.4035 5.9933 22.4135 5.97056 22.4245C5.9357 22.4424 5.90834 22.4624 5.88869 22.4841C5.86904 22.5063 5.84862 22.5351 5.82743 22.5716C5.75538 22.6953 5.65039 22.8786 5.51265 23.1211C5.3749 23.3637 5.22927 23.6209 5.07553 23.893H4.84821L4.70835 22.7296L4.07859 23.893H3.85994C3.82931 23.6148 3.80118 23.3535 3.77518 23.1088C3.74936 22.8641 3.72991 22.6835 3.71681 22.5672C3.7116 22.5276 3.70351 22.4988 3.69215 22.4798C3.68078 22.461 3.66152 22.4414 3.63359 22.4214C3.61625 22.4088 3.59717 22.3992 3.57694 22.3928C3.55652 22.3867 3.53283 22.3818 3.50586 22.3779L3.52435 22.2969H4.33558L4.31593 22.3779C4.26354 22.3839 4.22269 22.3902 4.1936 22.3967C4.16432 22.4035 4.14255 22.411 4.12791 22.4192C4.11501 22.4267 4.1073 22.4349 4.10499 22.4441C4.10287 22.4535 4.1019 22.4627 4.1019 22.4727C4.1019 22.4873 4.10248 22.5045 4.10402 22.5245C4.10537 22.5441 4.1073 22.5651 4.10942 22.5882C4.11539 22.6578 4.12618 22.768 4.14198 22.9186C4.15777 23.0694 4.17569 23.245 4.19553 23.4458L4.80641 22.2969H5.03874L5.17976 23.4811C5.26626 23.3221 5.34659 23.1737 5.42076 23.0353C5.49512 22.8972 5.55387 22.7851 5.59761 22.6992C5.62438 22.6468 5.64788 22.5978 5.66811 22.5525C5.68815 22.5073 5.69817 22.478 5.69817 22.4649C5.69817 22.4416 5.6789 22.4228 5.64057 22.408C5.60242 22.3931 5.54656 22.3831 5.47296 22.3779L5.49261 22.2969H6.13239Z" fill="#FEFEFE"/>
<path fill-rule="evenodd" clip-rule="evenodd" d="M16.9839 25.5194C15.457 25.5194 14.2148 24.2552 14.2148 22.701C14.2148 21.1472 15.457 19.8828 16.9839 19.8828C18.5108 19.8828 19.753 21.1472 19.753 22.701C19.753 24.2552 18.5108 25.5194 16.9839 25.5194ZM16.8614 25.0575C15.8022 25.0575 14.9405 24.1803 14.9405 23.1024C14.9405 22.0244 15.8022 21.1476 16.8614 21.1476C17.9206 21.1476 18.7821 22.0244 18.7821 23.1024C18.7821 24.1803 17.9204 25.0575 16.8614 25.0575Z" fill="#FEFEFE"/>
<path fill-rule="evenodd" clip-rule="evenodd" d="M6.84681 23.0973L14.9179 24.9642L15.4492 24.4225C15.4848 24.4617 15.522 24.4995 15.5607 24.5356L14.968 25.1401L14.9254 25.1305L6.13672 23.0973L14.968 21.0547L15.5605 21.6592C15.522 21.6952 15.485 21.7329 15.4494 21.7721L14.9179 21.2304L6.84681 23.0973Z" fill="#FEFEFE"/>
<path fill-rule="evenodd" clip-rule="evenodd" d="M14.9397 23.1016H6.49219L14.9434 25.0567L15.5043 24.4846C15.1557 24.1305 14.9397 23.6411 14.9397 23.1016Z" fill="#FEFEFE"/>
<path fill-rule="evenodd" clip-rule="evenodd" d="M14.788 23.0145L14.9413 23.0147C14.9402 23.042 14.9394 23.0692 14.9394 23.0967C14.9394 23.1229 14.9402 23.149 14.9411 23.1751L14.7011 23.1747L14.678 23.1373L10.9004 17.0312L16.9369 20.8994L16.9371 21.1437C16.9115 21.1425 16.8859 21.1419 16.8603 21.1419C16.8333 21.1419 16.8065 21.1427 16.7797 21.1437L16.7795 20.9878L11.4024 17.542L14.788 23.0145Z" fill="#FEFEFE"/>
<path fill-rule="evenodd" clip-rule="evenodd" d="M18.779 23.0223H18.9283L22.3138 17.5498L16.9367 20.9956L16.9369 21.1476C16.9113 21.1464 16.8856 21.1458 16.86 21.1458C16.833 21.1458 16.8063 21.1466 16.7795 21.1476L16.7793 20.9076L16.8161 20.8837L22.8158 17.0391L19.0151 23.1829L18.7788 23.1827C18.7799 23.1555 18.7807 23.128 18.7807 23.1006C18.7807 23.0743 18.7799 23.0482 18.779 23.0223Z" fill="#FEFEFE"/>
<path fill-rule="evenodd" clip-rule="evenodd" d="M16.9406 25.2103L22.3177 28.656L18.9322 23.1834H18.779C18.78 23.1562 18.7807 23.1289 18.7807 23.1015C18.7807 23.0754 18.78 23.0493 18.779 23.0234L19.019 23.0236L19.0422 23.0609L22.8198 29.1673L16.7834 25.2991L16.7832 25.0549C16.8086 25.0558 16.8343 25.0566 16.8601 25.0566C16.887 25.0566 16.9138 25.0558 16.9404 25.0547L16.9406 25.2103Z" fill="#FEFEFE"/>
<path fill-rule="evenodd" clip-rule="evenodd" d="M14.7919 23.1758L11.4061 28.6483L16.7833 25.2031L16.7831 25.0512C16.8087 25.0521 16.8343 25.0529 16.8601 25.0529C16.8871 25.0529 16.9139 25.0521 16.9405 25.051L16.9407 25.2911L16.9039 25.3147L10.9043 29.1593L14.705 23.0156L14.9412 23.016C14.94 23.0431 14.9393 23.0703 14.9393 23.0978C14.9393 23.124 14.94 23.1501 14.941 23.176L14.7919 23.1758Z" fill="#FEFEFE"/>
<path fill-rule="evenodd" clip-rule="evenodd" d="M18.2187 21.7134L22.5661 17.2891L16.8594 20.9458L16.8596 21.1403H16.8613C17.3909 21.1403 17.871 21.3595 18.2187 21.7134Z" fill="#FEFEFE"/>
<path fill-rule="evenodd" clip-rule="evenodd" d="M11.1504 17.2891L15.5017 21.7174C15.1541 22.0711 14.939 22.5591 14.9384 23.0974L14.7475 23.0973L11.1504 17.2891Z" fill="#FEFEFE"/>
<path fill-rule="evenodd" clip-rule="evenodd" d="M15.5033 24.4844L11.1562 28.9088L16.863 25.2518L16.8628 25.0579H16.8611C16.3315 25.0579 15.8512 24.8385 15.5033 24.4844Z" fill="#FEFEFE"/>
<path fill-rule="evenodd" clip-rule="evenodd" d="M18.2188 24.4813L22.5698 28.9096L18.9766 23.1018L18.7819 23.1016C18.7813 23.6398 18.5661 24.1278 18.2188 24.4813Z" fill="#FEFEFE"/>
<path fill-rule="evenodd" clip-rule="evenodd" d="M15.0261 21.1169L15.5609 21.6623C15.5224 21.6984 15.4852 21.7362 15.4498 21.7754L14.8535 21.1674L16.8605 12.1797L18.8675 21.1674L18.2712 21.7754C18.2356 21.7362 18.1984 21.6984 18.1599 21.6623L18.6949 21.1169L16.8605 12.9022L15.0261 21.1169Z" fill="#FEFEFE"/>
<path fill-rule="evenodd" clip-rule="evenodd" d="M18.2715 24.4225L18.8028 24.9642L26.8741 23.0973L18.8028 21.2304L18.2715 21.7721C18.2359 21.7329 18.1987 21.6952 18.1602 21.6592L18.7529 21.0547L18.7953 21.0645L27.584 23.0973L18.7529 25.1401L18.1602 24.5356C18.1987 24.4995 18.2359 24.4617 18.2715 24.4225Z" fill="#FEFEFE"/>
<path fill-rule="evenodd" clip-rule="evenodd" d="M15.0261 25.0806L16.8605 33.2951L18.6949 25.0806L18.1599 24.535C18.1984 24.4989 18.2356 24.4611 18.2712 24.4219L18.8675 25.0301L16.8605 34.0174L14.8535 25.0301L15.4498 24.4219C15.4854 24.4611 15.5224 24.4989 15.5611 24.535L15.0261 25.0806Z" fill="#FEFEFE"/>
<path fill-rule="evenodd" clip-rule="evenodd" d="M18.7812 23.1032H27.2289L18.7778 21.1484L18.2168 21.7204C18.5653 22.0744 18.7812 22.5636 18.7812 23.1032Z" fill="#FEFEFE"/>
<path fill-rule="evenodd" clip-rule="evenodd" d="M16.8606 12.5391V21.1439C16.3316 21.1439 15.8519 21.3625 15.5042 21.7158L14.9434 21.1439L16.8606 12.5391Z" fill="#FEFEFE"/>
<path fill-rule="evenodd" clip-rule="evenodd" d="M16.8613 25.0565V33.6607L18.782 25.06L18.2176 24.4844C17.8698 24.8377 17.3901 25.0565 16.8613 25.0565Z" fill="#FEFEFE"/>
<path fill-rule="evenodd" clip-rule="evenodd" d="M131.641 15.16C128.141 15.9106 124.902 19.5214 125.725 24.0831C126.395 27.7959 130.125 31.2399 134.699 30.2526C138.375 29.4593 141.368 25.8822 140.541 21.2358C139.895 17.6035 136.041 14.2161 131.641 15.16ZM132.015 17.9762C126.001 19.4371 127.951 28.7986 134.213 27.4657C140.358 26.1576 138.267 16.4574 132.015 17.9762Z" fill="black"/>
<path fill-rule="evenodd" clip-rule="evenodd" d="M87.3132 15.2244C83.6893 15.942 80.4594 19.535 81.2462 24.1819C81.8694 27.8627 85.6072 31.2805 90.0889 30.3292C93.7174 29.5592 96.774 25.968 95.9785 21.4021C95.3458 17.771 91.7329 14.3489 87.3132 15.2244ZM87.2901 18.1936C84.3749 19.1703 83.3076 21.8326 84.0961 24.3264C84.7591 26.4233 87.2081 28.3869 90.0528 27.4146C96.1394 25.3347 92.9166 16.3085 87.2901 18.1936Z" fill="black"/>
<path fill-rule="evenodd" clip-rule="evenodd" d="M91.6952 34.6972C87.9974 35.4212 84.6039 39.0141 85.3631 43.7527C85.9834 47.6255 89.7395 51.0339 94.3638 50.2847C98.1854 49.6654 101.398 46.0105 100.735 41.2392C100.186 37.2877 96.2844 33.7988 91.6952 34.6972ZM92.1034 37.6181C89.7613 38.164 87.6842 40.3998 88.2555 43.4527C88.714 45.904 91.1252 47.8522 94.0376 47.2931C100.257 46.0995 98.447 36.1395 92.1034 37.6181Z" fill="black"/>
<path fill-rule="evenodd" clip-rule="evenodd" d="M68.8047 50.1986L71.6307 50.1945L71.61 40.6169L82.4385 50.9026L82.4586 34.6324L79.5117 34.661L79.495 44.0281L68.8047 33.8438V50.1986Z" fill="black"/>
<path fill-rule="evenodd" clip-rule="evenodd" d="M103.453 50.2029L106.153 50.1958L106.162 45.182C107.624 44.8889 107.479 45.5332 108.766 47.2816C109.29 47.9926 110.445 49.5725 110.718 50.1942L114.017 50.1967C113.838 49.7662 113.447 49.334 113.128 48.8883L110.3 44.9229C111.58 44.1249 112.525 43.5229 113.043 41.9839C113.599 40.329 113.266 38.3974 112.447 37.1674C110.665 34.4924 107.335 34.5577 103.468 34.773L103.453 50.2029ZM106.187 42.2412C108.354 42.3201 110.601 42.4419 110.552 39.987C110.499 37.3278 107.611 37.6854 106.222 37.7475L106.187 42.2412Z" fill="black"/>
<path fill-rule="evenodd" clip-rule="evenodd" d="M68.8899 30.4472L71.4383 30.5059L71.5101 25.9784C73.9084 25.8073 75.6979 26.1717 77.1698 24.7466C78.3555 23.5987 79.208 21.702 78.6499 19.4827C77.6323 15.4377 73.2788 15.2965 68.8789 15.7131L68.8899 30.4472ZM71.4871 23.0242C73.7409 23.3063 76.1009 23.1898 76.0846 20.7523C76.0685 18.3867 73.6637 18.248 71.4959 18.4999L71.4871 23.0242Z" fill="black"/>
<path fill-rule="evenodd" clip-rule="evenodd" d="M129.869 50.189L139.203 50.2452L139.195 47.2914L132.832 47.306L132.804 43.9725L138.979 43.8971L138.993 40.963L132.819 40.9461L132.819 37.7402L139.217 37.7261L139.226 34.7911L129.954 34.7891L129.869 50.189Z" fill="black"/>
<path fill-rule="evenodd" clip-rule="evenodd" d="M113.182 18.4149L116.879 18.4614L116.946 30.4494L119.568 30.4497L119.607 18.471L123.391 18.4719L123.38 15.6871L113.172 15.6797L113.182 18.4149Z" fill="black"/>
<path fill-rule="evenodd" clip-rule="evenodd" d="M98.0293 30.4088L100.707 30.4887L100.688 21.458L110.95 31.2055L110.969 15.7865L108.176 15.8138L108.16 24.6908L98.0293 15.0391V30.4088Z" fill="black"/>
<path fill-rule="evenodd" clip-rule="evenodd" d="M116.653 37.4956L120.554 37.5448L120.625 50.1944L123.392 50.1948L123.433 37.5551L127.426 37.5558L127.415 34.6172L116.648 34.6094L116.653 37.4956Z" fill="black"/>
<path fill-rule="evenodd" clip-rule="evenodd" d="M135.177 23.1338C135.258 23.792 135.259 24.6571 135.125 25.25C135.07 25.0764 135.051 24.9654 134.986 24.7952C134.88 24.5171 134.746 24.2918 134.563 24.0739C134.456 23.9459 134.39 23.8922 134.271 23.7965C133.756 23.3826 133.348 23.4636 132.638 23.3598C131.744 23.2291 130.535 22.8287 130.372 21.8105C130.343 21.6293 130.371 21.4713 130.35 21.3183C130.352 21.5901 132.007 20.1973 134.258 22.6559C132.476 20.4232 130.496 20.8212 130.587 20.7183C131.132 20.1006 132.119 19.6677 132.909 19.9292L133.43 20.1621C134.34 20.6912 135.004 21.7195 135.177 23.1338Z" fill="#365902"/>
<defs>
<linearGradient id="paint0_linear_1_10424" x1="39.1916" y1="33.2898" x2="2.1504" y2="5.73435" gradientUnits="userSpaceOnUse">
<stop stop-color="#FFBF00"/>
<stop offset="0.478431" stop-color="#F9961E"/>
<stop offset="1" stop-color="#F26D3D"/>
</linearGradient>
</defs>
</svg>
